<svg width="20" height="20" xmlns="http://www.w3.org/2000/svg">

 <g>
  <title>background</title>
  <rect fill="none" id="canvas_background" height="22" width="22" y="-1" x="-1"/>
 </g>
 <g>
  <title>Layer 1</title>
  <path id="svg_2" d="m202.4,201.7l0,0l0,0z"/>
  <path fill="#f39c12" stroke="null" id="svg_3" d="m16.696518,16.733815c-0.802666,-0.286222 -1.953775,-0.385777 -2.687997,-0.547555c-0.423111,-0.093333 -1.03911,-0.329777 -1.244443,-0.572444c-0.205333,-0.248889 -0.080889,-2.544886 -0.080889,-2.544886s0.379555,-0.597333 0.584888,-1.119999s0.429333,-1.953775 0.429333,-1.953775s0.423111,0 0.572444,-0.740444c0.161778,-0.808888 0.410666,-1.144887 0.379555,-1.748442c-0.031111,-0.559999 -0.323555,-0.59111 -0.354666,-0.59111l0,0c0,0 0.304889,-0.846221 0.348444,-2.638219c0.049778,-2.121775 -1.57422,-4.212439 -4.623105,-4.212439s-4.666661,2.084442 -4.623105,4.206217c0.037333,1.785776 0.348444,2.638219 0.348444,2.638219l0,0c-0.031111,0 -0.323555,0.031111 -0.354666,0.59111c-0.031111,0.603555 0.224,0.92711 0.379555,1.735998c0.149333,0.740444 0.572444,0.746666 0.572444,0.746666s0.224,1.437332 0.429333,1.959998c0.205333,0.528888 0.584888,1.119999 0.584888,1.119999s0.124444,2.295997 -0.080889,2.544886c-0.205333,0.248889 -0.821332,0.479111 -1.244443,0.572444c-0.740444,0.161778 -1.885331,0.267555 -2.687997,0.553777c-0.802666,0.286222 -3.279107,1.250665 -3.279107,3.241774l9.955543,0l9.955543,0c0,-1.991109 -2.476441,-2.955552 -3.279107,-3.241774zm-6.676436,2.246219l-8.543101,0c0.124444,-0.186666 0.292444,-0.317333 0.510222,-0.472888c0.435555,-0.317333 1.001777,-0.609777 1.68622,-0.846221c0.423111,-0.149333 1.03911,-0.248889 1.580443,-0.329777c0.354666,-0.056 0.690666,-0.105778 0.989332,-0.174222c0.211555,-0.049778 1.294221,-0.311111 1.791998,-0.908443c0.28,-0.336 0.360888,-0.790221 0.348444,-2.009775c-0.006222,-0.622221 -0.037333,-1.200887 -0.037333,-1.225776l-0.012444,-0.261333l-0.143111,-0.217778c-0.093333,-0.143111 -0.360888,-0.59111 -0.497777,-0.951999c-0.112,-0.292444 -0.286222,-1.194665 -0.373333,-1.748442c0,0 0.024889,0.062222 -0.031111,-0.230222c-0.056,-0.292444 -0.522666,-0.267555 -0.584888,-0.497777c-0.056,-0.224 -0.112,-0.429333 -0.267555,-1.132443c-0.155555,-0.70311 0.174222,-0.696888 0.242666,-1.007999c0.037333,-0.192889 0,-0.354666 0,-0.360888l0,0c-0.018667,-0.062222 -0.255111,-0.833777 -0.292444,-2.345775c-0.018667,-0.821332 0.286222,-1.592887 0.858666,-2.171553c0.659555,-0.671999 1.617776,-1.026665 2.768885,-1.026665c1.182221,0 2.115553,0.354666 2.775108,1.026665c0.572444,0.578666 0.877332,1.350221 0.858666,2.171553c-0.031111,1.505776 -0.267555,2.277331 -0.292444,2.345775l0,0c0,0.006222 -0.037333,0.105778 -0.024889,0.323555c0.012444,0.336 0.423111,0.342222 0.267555,1.045332c-0.155555,0.70311 -0.211555,0.908443 -0.267555,1.132443c-0.056,0.224 -0.528888,0.205333 -0.584888,0.497777c-0.056,0.292444 -0.031111,0.230222 -0.031111,0.230222c-0.087111,0.553777 -0.261333,1.455998 -0.373333,1.748442c-0.143111,0.360888 -0.410666,0.808888 -0.497777,0.951999l-0.143111,0.217778l-0.012444,0.261333c0,0.024889 -0.031111,0.603555 -0.037333,1.225776c-0.012444,1.219554 0.068444,1.673776 0.348444,2.009775c0.497777,0.59111 1.580443,0.858666 1.791998,0.908443c0.298666,0.068444 0.634666,0.118222 0.989332,0.174222c0.541333,0.080889 1.157332,0.180444 1.580443,0.329777c0.684444,0.242666 1.256887,0.53511 1.68622,0.852443c0.217778,0.155555 0.385777,0.286222 0.510222,0.472888l-8.536878,-0.006222l0,0z"/>
 </g>
</svg>