<?xml version="1.0"?>
<!--Icons from directory ""-->
<svg xmlns="http://www.w3.org/2000/svg" width="300" height="1481" viewBox="0 0 300 1481"><svg xmlns:xlink="http://www.w3.org/1999/xlink" id="bulb" xml:space="preserve" viewBox="0 0 617.5898 1010" version="1.1" enable-background="new 0 0 617.5898 1010" width="32" height="32" y="0"><g id="bulb-bulb-bulb" fill="#1A1A1A"><path d="m308.82 0c-170.29 0-308.82 138.6-308.82 308.92 0 66.676 20.96 130.25 59.87 182.59l14.302 21.206c44.508 65.27 105.46 154.78 102.04 217.41l-1.2334 22.686 245-0.1485 21.65-0.3945-0.1973-21.649c0-0.6906 0.542-71.879 104.92-222.69l9.5186-13.883c9.1973-12.107 17.581-25.176 24.757-38.54 4.6114-8.4087 8.7285-16.891 12.452-25.916 16.274-38.171 24.511-78.783 24.511-120.68 0-170.32-138.53-308.92-308.77-308.92zm244.63 412.98c-3.1562 7.7183-6.6328 14.82-10.528 21.971-6.3623 11.614-13.562 22.834-21.823 33.93l-10.134 14.696c-81.989 118.48-104.4 191.82-110.37 226.14l-182.1 0.1231c-7.5699-72.791-65.418-157.67-108.82-221.36l-14.499-21.403c-34.127-46.111-52.25-100.73-52.25-158.16 0-146.59 119.32-265.84 265.89-265.84 146.54 0 265.82 119.25 265.82 265.84-0.01 36.02-7.11 70.96-21.19 104.06z"/><rect y="967.05" width="127.24" height="42.954" x="245.18"/><rect y="882.22" width="257.8" height="43.004" x="179.91"/><path d="m390.68 155.27c-10.356-3.8218-22.464 1.9233-26.212 12.157-3.8955 10.628 1.5537 22.34 12.157 26.211 25.792 9.3702 37.48 34.744 42.807 54.297 10.405 38.541 3.2549 85.268-10.159 101.35-7.1513 8.606-5.9678 21.527 2.7119 28.776 3.6495 3.0576 8.3096 4.6855 13.069 4.6855 1.4795 0 2.9336-0.1728 4.3886-0.4443 4.4385-1.0107 8.4336-3.4272 11.294-6.8794 23.499-28.283 31.414-88.942 18.148-138.18-11-40.88-35.24-69.98-68.21-81.99z"/><rect y="797.4" width="257.8" height="43.004" x="179.91"/></g></svg><svg width="96" height="96" id="camera-hover" y="32"><g><title>background</title><rect id="camera-hover-canvas_background" height="98" width="98" y="-1" x="-1" fill="none"/></g><g><title>Layer 1</title><path id="camera-hover-svg_1" d="m59.859 16l5.555 8.438 2.305 3.562h4.281 12c2.168 0 4 1.889 4 4.125v43.938c0 2.21-1.757 3.938-4 3.938h-72c-2.206 0-4-1.794-4-4v-43.939c0-2.239 1.794-4.062 4-4.062h12 4.281l2.375-3.562 5.625-8.438h23.719m4-8h-32l-8 12h-12c-6.63 0-12 5.434-12 12.062v43.938c0 6.63 5.37 12 12 12h72c6.63 0 12-5.309 12-11.938v-43.938c0-6.63-5.37-12.125-12-12.125h-12l-8-11.999z" fill="#f39c12"/><path id="camera-hover-svg_2" d="m48 40c6.617 0 12 5.383 12 12s-5.384 12-12 12c-6.617 0-12-5.383-12-12s5.382-12 12-12m0-8c-11.046 0-20 8.955-20 20s8.955 20 20 20c11.046 0 20-8.954 20-20s-8.954-20-20-20z" fill="#f39c12"/><polyline id="camera-hover-svg_3" fill="none" stroke-opacity="null" transform="rotate(201.48 6.0028 5.3511)" stroke="null" stroke-linecap="round" stroke-width="null" points="6.0752 5.3511 6.0752 5.3511 5.9304 5.3511"/></g></svg><svg width="96" height="96" id="camera" y="128"><g><title>background</title><rect id="camera-canvas_background" height="402" width="582" y="-1" x="-1" fill="none"/></g><g><title>Layer 1</title><path id="camera-svg_1" d="m59.859 16l5.555 8.438 2.305 3.562h4.281 12c2.168 0 4 1.889 4 4.125v43.938c0 2.21-1.757 3.938-4 3.938h-72c-2.206 0-4-1.794-4-4v-43.939c0-2.239 1.794-4.062 4-4.062h12 4.281l2.375-3.562 5.625-8.438h23.719m4-8h-32l-8 12h-12c-6.63 0-12 5.434-12 12.062v43.938c0 6.63 5.37 12 12 12h72c6.63 0 12-5.309 12-11.938v-43.938c0-6.63-5.37-12.125-12-12.125h-12l-8-11.999z" fill="#fff"/><path id="camera-svg_2" d="m48 40c6.617 0 12 5.383 12 12s-5.384 12-12 12c-6.617 0-12-5.383-12-12s5.382-12 12-12m0-8c-11.046 0-20 8.955-20 20s8.955 20 20 20c11.046 0 20-8.954 20-20s-8.954-20-20-20z" fill="#fff"/></g></svg><svg width="32" height="32" id="cash-dollar-hover" y="224"><g><title>background</title><rect id="cash-dollar-hover-canvas_background" height="34" width="34" y="-1" x="-1" fill="none"/></g><g><title>Layer 1</title><path id="cash-dollar-hover-svg_1" d="m2.7312 8.725c-0.35053 0.20156-0.82624 0.10078-1.0265-0.27714s-0.10015-0.83142 0.27542-1.033c11.592-6.9033 15.023 2.0911 25.864-0.30234 0.4006-0.075584 0.80121 0.17636 0.90136 0.57948 0.075113 0.40311-0.17526 0.80623-0.57587 0.907-11.017 2.4187-14.722-6.2734-25.438 0.12597m15.273 7.2812c0-1.5873-1.2769-2.8722-2.8543-2.8722s-2.8543 1.2849-2.8543 2.8722 1.2769 2.8722 2.8543 2.8722 2.8543-1.2849 2.8543-2.8722zm1.5023 0c0 2.4187-1.9529 4.3839-4.3566 4.3839-2.4036 0-4.3566-1.9652-4.3566-4.3839s1.9529-4.3839 4.3566-4.3839c2.4036 0 4.3566 1.9652 4.3566 4.3839zm-16.4-4.6862v11.917c10.441-5.568 14.196 2.3431 24.136 0.4787v-12.119c-10.19 1.7888-13.971-6.1223-24.136-0.27714zm-0.90136-1.2345c11.342-6.601 14.772 2.066 25.338-0.10078 0.95143-0.20156 1.2018 0.10078 1.2018 1.033v12.9c0 0.907-0.050075 1.033-1.0015 1.2345-10.541 2.1163-14.246-6.0719-24.512-0.25195-0.42564 0.22675-0.85128 0.57948-1.302 0.22675-0.32549-0.25195-0.30045-0.57948-0.30045-0.95739v-12.849c0-0.30234 0-0.50389 0.025038-0.65506 0.025038-0.22675 0.15023-0.35272 0.55083-0.57948zm2.8042 1.8392c1.2769-0.83142 2.6039-1.2597 4.1062-1.4109 1.2769-0.12597 1.4021 1.3857 0.17526 1.5117-1.2268 0.10078-2.3285 0.42831-3.3551 1.0834-0.70106 0.4535-1.1517 0.27714-1.327-0.075584-0.22534-0.4535 0-0.85662 0.4006-1.1086z" stroke="null" transform="rotate(-44.797 15.181 15.133)" fill="#fff"/></g></svg><svg width="32" height="32" id="cash-dollar" y="256"><g><title>background</title><rect id="cash-dollar-canvas_background" height="34" width="34" y="-1" x="-1" fill="none"/></g><g><title>Layer 1</title><path id="cash-dollar-svg_1" d="m2.7312 8.725c-0.35053 0.20156-0.82624 0.10078-1.0265-0.27714s-0.10015-0.83142 0.27542-1.033c11.592-6.9033 15.023 2.0911 25.864-0.30234 0.4006-0.075584 0.80121 0.17636 0.90136 0.57948 0.075113 0.40311-0.17526 0.80623-0.57587 0.907-11.017 2.4187-14.722-6.2734-25.438 0.12597m15.273 7.2812c0-1.5873-1.2769-2.8722-2.8543-2.8722s-2.8543 1.2849-2.8543 2.8722 1.2769 2.8722 2.8543 2.8722 2.8543-1.2849 2.8543-2.8722zm1.5023 0c0 2.4187-1.9529 4.3839-4.3566 4.3839-2.4036 0-4.3566-1.9652-4.3566-4.3839s1.9529-4.3839 4.3566-4.3839c2.4036 0 4.3566 1.9652 4.3566 4.3839zm-16.4-4.6862v11.917c10.441-5.568 14.196 2.3431 24.136 0.4787v-12.119c-10.19 1.7888-13.971-6.1223-24.136-0.27714zm-0.90136-1.2345c11.342-6.601 14.772 2.066 25.338-0.10078 0.95143-0.20156 1.2018 0.10078 1.2018 1.033v12.9c0 0.907-0.050075 1.033-1.0015 1.2345-10.541 2.1163-14.246-6.0719-24.512-0.25195-0.42564 0.22675-0.85128 0.57948-1.302 0.22675-0.32549-0.25195-0.30045-0.57948-0.30045-0.95739v-12.849c0-0.30234 0-0.50389 0.025038-0.65506 0.025038-0.22675 0.15023-0.35272 0.55083-0.57948zm2.8042 1.8392c1.2769-0.83142 2.6039-1.2597 4.1062-1.4109 1.2769-0.12597 1.4021 1.3857 0.17526 1.5117-1.2268 0.10078-2.3285 0.42831-3.3551 1.0834-0.70106 0.4535-1.1517 0.27714-1.327-0.075584-0.22534-0.4535 0-0.85662 0.4006-1.1086z" stroke="null" transform="rotate(-44.797 15.181 15.133)"/></g></svg><svg width="32" height="32" id="chemistry-hover" y="288"><g><title>background</title><rect id="chemistry-hover-canvas_background" height="402" width="582" y="-1" x="-1" fill="none"/></g><g><title fill="#ffffff">Layer 1</title><g fill="#fff"><path id="chemistry-hover-svg_1" d="m20.682 3.732c-0.473-0.472-1.1-0.732-1.768-0.732s-1.295 0.26-1.77 0.733l-1.41 1.412c-0.473 0.472-0.734 1.1-0.734 1.769 0 0.471 0.129 0.922 0.371 1.313l-13.577 5.439c-0.908 0.399-1.559 1.218-1.742 2.189-0.185 0.977 0.125 1.979 0.834 2.687l12.72 12.58c0.548 0.548 1.276 0.859 2.045 0.877 0.018 0.001 0.06 0.001 0.078 0.001 0.202 0 0.407-0.021 0.61-0.062 0.994-0.206 1.808-0.893 2.177-1.828l5.342-13.376c0.402 0.265 0.875 0.407 1.367 0.407 0.67 0 1.297-0.261 1.768-0.733l1.407-1.408c0.477-0.474 0.738-1.103 0.738-1.773s-0.262-1.3-0.732-1.768l-7.724-7.727zm-4.023 25.635c-0.124 0.313-0.397 0.544-0.727 0.612-0.076 0.016-0.153 0.022-0.229 0.021-0.254-0.006-0.499-0.108-0.682-0.292l-12.728-12.588c-0.234-0.233-0.337-0.567-0.275-0.893 0.061-0.324 0.279-0.598 0.582-0.73l6.217-2.49c4.189 1.393 8.379 0.051 12.57 4.522l-4.728 11.838zm10.333-15.787l-1.414 1.413c-0.195 0.196-0.512 0.196-0.707 0l-1.768-1.767-1.432 3.589 0.119-0.303c-3.01-3.005-6.069-3.384-8.829-3.723-0.887-0.109-1.747-0.223-2.592-0.405l8.491-3.401-1.715-1.715c-0.195-0.195-0.195-0.512 0-0.707l1.414-1.415c0.195-0.195 0.512-0.195 0.707 0l7.725 7.727c0.198 0.195 0.198 0.512 0.001 0.707z"/><path id="chemistry-hover-svg_2" d="m16.5 21c1.378 0 2.5-1.121 2.5-2.5s-1.121-2.5-2.5-2.5c-1.379 0-2.5 1.121-2.5 2.5s1.122 2.5 2.5 2.5zm0-4c0.828 0 1.5 0.672 1.5 1.5s-0.672 1.5-1.5 1.5c-0.829 0-1.5-0.672-1.5-1.5s0.671-1.5 1.5-1.5z"/><path id="chemistry-hover-svg_3" d="m29.5 0c-1.379 0-2.5 1.121-2.5 2.5s1.121 2.5 2.5 2.5 2.5-1.121 2.5-2.5-1.121-2.5-2.5-2.5zm0 4c-0.828 0-1.5-0.672-1.5-1.5s0.672-1.5 1.5-1.5 1.5 0.672 1.5 1.5-0.672 1.5-1.5 1.5z"/><path id="chemistry-hover-svg_4" d="m8 17c0 1.103 0.897 2 2 2s2-0.897 2-2-0.897-2-2-2-2 0.897-2 2zm2-1c0.552 0 1 0.447 1 1s-0.448 1-1 1-1-0.447-1-1 0.448-1 1-1z"/><circle id="chemistry-hover-svg_5" cx="13" cy="23" r="1"/><circle id="chemistry-hover-svg_6" cx="29" cy="8" r="1"/></g></g></svg><svg width="32" height="32" id="chemistry" y="320"><g><title>background</title><rect id="chemistry-canvas_background" height="402" width="582" y="-1" x="-1" fill="none"/></g><g><title>Layer 1</title><g fill="#333"><path id="chemistry-svg_1" d="m20.682 3.732c-0.473-0.472-1.1-0.732-1.768-0.732s-1.295 0.26-1.77 0.733l-1.41 1.412c-0.473 0.472-0.734 1.1-0.734 1.769 0 0.471 0.129 0.922 0.371 1.313l-13.577 5.439c-0.908 0.399-1.559 1.218-1.742 2.189-0.185 0.977 0.125 1.979 0.834 2.687l12.72 12.58c0.548 0.548 1.276 0.859 2.045 0.877 0.018 0.001 0.06 0.001 0.078 0.001 0.202 0 0.407-0.021 0.61-0.062 0.994-0.206 1.808-0.893 2.177-1.828l5.342-13.376c0.402 0.265 0.875 0.407 1.367 0.407 0.67 0 1.297-0.261 1.768-0.733l1.407-1.408c0.477-0.474 0.738-1.103 0.738-1.773s-0.262-1.3-0.732-1.768l-7.724-7.727zm-4.023 25.635c-0.124 0.313-0.397 0.544-0.727 0.612-0.076 0.016-0.153 0.022-0.229 0.021-0.254-0.006-0.499-0.108-0.682-0.292l-12.728-12.588c-0.234-0.233-0.337-0.567-0.275-0.893 0.061-0.324 0.279-0.598 0.582-0.73l6.217-2.49c4.189 1.393 8.379 0.051 12.57 4.522l-4.728 11.838zm10.333-15.787l-1.414 1.413c-0.195 0.196-0.512 0.196-0.707 0l-1.768-1.767-1.432 3.589 0.119-0.303c-3.01-3.005-6.069-3.384-8.829-3.723-0.887-0.109-1.747-0.223-2.592-0.405l8.491-3.401-1.715-1.715c-0.195-0.195-0.195-0.512 0-0.707l1.414-1.415c0.195-0.195 0.512-0.195 0.707 0l7.725 7.727c0.198 0.195 0.198 0.512 0.001 0.707z"/><path id="chemistry-svg_2" d="m16.5 21c1.378 0 2.5-1.121 2.5-2.5s-1.121-2.5-2.5-2.5c-1.379 0-2.5 1.121-2.5 2.5s1.122 2.5 2.5 2.5zm0-4c0.828 0 1.5 0.672 1.5 1.5s-0.672 1.5-1.5 1.5c-0.829 0-1.5-0.672-1.5-1.5s0.671-1.5 1.5-1.5z"/><path id="chemistry-svg_3" d="m29.5 0c-1.379 0-2.5 1.121-2.5 2.5s1.121 2.5 2.5 2.5 2.5-1.121 2.5-2.5-1.121-2.5-2.5-2.5zm0 4c-0.828 0-1.5-0.672-1.5-1.5s0.672-1.5 1.5-1.5 1.5 0.672 1.5 1.5-0.672 1.5-1.5 1.5z"/><path id="chemistry-svg_4" d="m8 17c0 1.103 0.897 2 2 2s2-0.897 2-2-0.897-2-2-2-2 0.897-2 2zm2-1c0.552 0 1 0.447 1 1s-0.448 1-1 1-1-0.447-1-1 0.448-1 1-1z"/><circle id="chemistry-svg_5" cx="13" cy="23" r="1"/><circle id="chemistry-svg_6" cx="29" cy="8" r="1"/></g></g></svg><svg width="16" height="16" id="close" y="352"><g><title>background</title><rect id="close-canvas_background" height="18" width="18" y="-1" x="-1" fill="none"/></g><g><title>Layer 1</title><polygon id="close-svg_1" stroke="null" points="14.328 1.0047 7.974 7.3809 1.5979 1.0047 1.1667 1.4358 7.5202 7.812 1.1667 14.188 1.5979 14.619 7.974 8.2432 14.328 14.619 14.781 14.188 8.4052 7.812 14.781 1.4358" fill="#010101"/></g></svg><svg width="35" height="35" id="coffee-hover" y="368"><g><title>background</title><rect id="coffee-hover-canvas_background" height="37" width="37" y="-1" x="-1" fill="none"/></g><g><title>Layer 1</title><g stroke="null" fill="#f39c12"><path id="coffee-hover-svg_3" d="m25.402 34.508h-16.327c-0.3592 0-0.65649-0.27892-0.67894-0.63812l-1.3606-21.77c-0.011565-0.18708 0.054424-0.37144 0.183-0.50818s0.30818-0.2143 0.49594-0.2143h19.048c0.18776 0 0.36736 0.077554 0.49594 0.2143s0.19457 0.3211 0.183 0.50818l-1.3606 21.77c-0.02245 0.3592-0.31974 0.63812-0.67894 0.63812zm-15.688-1.3606h15.049l1.2756-20.409h-17.6l1.2756 20.409z"/><path id="coffee-hover-svg_5" d="m29.779 12.676h-24.933c-0.43009 0-0.77914-0.34828-0.77914-0.77914v-6.2331c0-0.43087 0.34906-0.77914 0.77914-0.77914h24.933c0.43009 0 0.77914 0.34828 0.77914 0.77914v6.2331c0 0.43087-0.34906 0.77914-0.77914 0.77914zm-24.153-1.5583h23.374v-4.6749h-23.374v4.6749z"/><path id="coffee-hover-svg_7" d="m26.648 6.2174c-0.003994-0.000666-0.008654 0-0.013313 0h-18.638c-0.21368 0-0.4147-0.10251-0.53985-0.27625s-0.15909-0.3974-0.09186-0.59976l1.3313-3.9939c0.091195-0.27225 0.34481-0.45531 0.63171-0.45531h15.976c0.2869 0 0.54051 0.18306 0.63171 0.45531l1.2914 3.8748c0.055249 0.097186 0.087201 0.20968 0.087201 0.3295 0 0.36811-0.29821 0.66566-0.66566 0.66566zm-17.728-1.3313h16.792l-0.88732-2.6626h-15.017l-0.88798 2.6626z"/><path id="coffee-hover-svg_9" d="m25.789 17.509h-17.101c-0.34963 0-0.63339-0.28312-0.63339-0.63339s0.28376-0.63339 0.63339-0.63339h17.101c0.34963 0 0.63339 0.28312 0.63339 0.63339s-0.28376 0.63339-0.63339 0.63339z"/><rect id="coffee-hover-svg_11" height="1.3469" width="17.173" y="23.79" x="8.9117"/><path id="coffee-hover-svg_13" d="m19.411 21.19h-4.4944c-0.41349 0-0.74908-0.33484-0.74908-0.74908s0.33558-0.74908 0.74908-0.74908h4.4944c0.41349 0 0.74908 0.33484 0.74908 0.74908s-0.33558 0.74908-0.74908 0.74908z"/></g><ellipse id="coffee-hover-svg_15" stroke-opacity="null" fill-opacity="null" rx=".14870" ry=".074348" stroke="null" cy="3.7828" cx="63.113" stroke-width="null" fill="null"/></g></svg><svg width="35" height="35" id="coffee" y="403"><g><title>background</title><rect id="coffee-canvas_background" height="37" width="37" y="-1" x="-1" fill="none"/></g><g><title>Layer 1</title><g stroke="null" fill="#fff"><path id="coffee-svg_3" d="m25.402 34.508h-16.327c-0.3592 0-0.65649-0.27892-0.67894-0.63812l-1.3606-21.77c-0.011565-0.18708 0.054424-0.37144 0.183-0.50818s0.30818-0.2143 0.49594-0.2143h19.048c0.18776 0 0.36736 0.077554 0.49594 0.2143s0.19457 0.3211 0.183 0.50818l-1.3606 21.77c-0.02245 0.3592-0.31974 0.63812-0.67894 0.63812zm-15.688-1.3606h15.049l1.2756-20.409h-17.6l1.2756 20.409z"/><path id="coffee-svg_5" d="m29.779 12.676h-24.933c-0.43009 0-0.77914-0.34828-0.77914-0.77914v-6.2331c0-0.43087 0.34906-0.77914 0.77914-0.77914h24.933c0.43009 0 0.77914 0.34828 0.77914 0.77914v6.2331c0 0.43087-0.34906 0.77914-0.77914 0.77914zm-24.153-1.5583h23.374v-4.6749h-23.374v4.6749z"/><path id="coffee-svg_7" d="m26.648 6.2174c-0.003994-0.000666-0.008654 0-0.013313 0h-18.638c-0.21368 0-0.4147-0.10251-0.53985-0.27625s-0.15909-0.3974-0.09186-0.59976l1.3313-3.9939c0.091195-0.27225 0.34481-0.45531 0.63171-0.45531h15.976c0.2869 0 0.54051 0.18306 0.63171 0.45531l1.2914 3.8748c0.055249 0.097186 0.087201 0.20968 0.087201 0.3295 0 0.36811-0.29821 0.66566-0.66566 0.66566zm-17.728-1.3313h16.792l-0.88732-2.6626h-15.017l-0.88798 2.6626z"/><path id="coffee-svg_9" d="m25.789 17.509h-17.101c-0.34963 0-0.63339-0.28312-0.63339-0.63339s0.28376-0.63339 0.63339-0.63339h17.101c0.34963 0 0.63339 0.28312 0.63339 0.63339s-0.28376 0.63339-0.63339 0.63339z"/><rect id="coffee-svg_11" height="1.3469" width="17.173" y="23.79" x="8.9117"/><path id="coffee-svg_13" d="m19.411 21.19h-4.4944c-0.41349 0-0.74908-0.33484-0.74908-0.74908s0.33558-0.74908 0.74908-0.74908h4.4944c0.41349 0 0.74908 0.33484 0.74908 0.74908s-0.33558 0.74908-0.74908 0.74908z"/></g><ellipse id="coffee-svg_15" stroke-opacity="null" fill-opacity="null" rx=".14870" ry=".074348" stroke="null" cy="3.7828" cx="63.113" stroke-width="null" fill="null"/></g></svg><svg width="20" height="20" id="form-person-icon-hover" y="438"><g><title>background</title><rect id="form-person-icon-hover-canvas_background" height="22" width="22" y="-1" x="-1" fill="none"/></g><g><title>Layer 1</title><path id="form-person-icon-hover-svg_2" d="m202.4 201.7z"/><path id="form-person-icon-hover-svg_3" d="m16.697 16.734c-0.80267-0.28622-1.9538-0.38578-2.688-0.54756-0.42311-0.093333-1.0391-0.32978-1.2444-0.57244-0.20533-0.24889-0.080889-2.5449-0.080889-2.5449s0.37956-0.59733 0.58489-1.12 0.42933-1.9538 0.42933-1.9538 0.42311 0 0.57244-0.74044c0.16178-0.80889 0.41067-1.1449 0.37956-1.7484-0.031111-0.56-0.32356-0.59111-0.35467-0.59111 0 0 0.30489-0.84622 0.34844-2.6382 0.049778-2.1218-1.5742-4.2124-4.6231-4.2124s-4.6667 2.0844-4.6231 4.2062c0.037333 1.7858 0.34844 2.6382 0.34844 2.6382-0.031111 0-0.32356 0.031111-0.35467 0.59111-0.031111 0.60356 0.224 0.92711 0.37956 1.736 0.14933 0.74044 0.57244 0.74667 0.57244 0.74667s0.224 1.4373 0.42933 1.96c0.20533 0.52889 0.58489 1.12 0.58489 1.12s0.12444 2.296-0.080889 2.5449c-0.20533 0.24889-0.82133 0.47911-1.2444 0.57244-0.74044 0.16178-1.8853 0.26756-2.688 0.55378-0.80267 0.28622-3.2791 1.2507-3.2791 3.2418h9.9555 9.9555c0-1.9911-2.4764-2.9556-3.2791-3.2418zm-6.6764 2.2462h-8.5431c0.12444-0.18667 0.29244-0.31733 0.51022-0.47289 0.43556-0.31733 1.0018-0.60978 1.6862-0.84622 0.42311-0.14933 1.0391-0.24889 1.5804-0.32978 0.35467-0.056 0.69067-0.10578 0.98933-0.17422 0.21156-0.049778 1.2942-0.31111 1.792-0.90844 0.28-0.336 0.36089-0.79022 0.34844-2.0098-0.006222-0.62222-0.037333-1.2009-0.037333-1.2258l-0.012444-0.26133-0.14311-0.21778c-0.093333-0.14311-0.36089-0.59111-0.49778-0.952-0.112-0.29244-0.28622-1.1947-0.37333-1.7484 0 0 0.024889 0.062222-0.031111-0.23022s-0.52267-0.26756-0.58489-0.49778c-0.056-0.224-0.112-0.42933-0.26756-1.1324-0.15556-0.70311 0.17422-0.69689 0.24267-1.008 0.037333-0.19289 0-0.35467 0-0.36089-0.018667-0.062222-0.25511-0.83378-0.29244-2.3458-0.018667-0.82133 0.28622-1.5929 0.85867-2.1716 0.65956-0.672 1.6178-1.0267 2.7689-1.0267 1.1822 0 2.1156 0.35467 2.7751 1.0267 0.57244 0.57867 0.87733 1.3502 0.85867 2.1716-0.031111 1.5058-0.26756 2.2773-0.29244 2.3458 0 0.006222-0.037333 0.10578-0.024889 0.32356 0.012444 0.336 0.42311 0.34222 0.26756 1.0453-0.15556 0.70311-0.21156 0.90844-0.26756 1.1324-0.056 0.224-0.52889 0.20533-0.58489 0.49778-0.056 0.29244-0.031111 0.23022-0.031111 0.23022-0.087111 0.55378-0.26133 1.456-0.37333 1.7484-0.14311 0.36089-0.41067 0.80889-0.49778 0.952l-0.14311 0.21778-0.012444 0.26133c0 0.024889-0.031111 0.60356-0.037333 1.2258-0.012444 1.2196 0.068444 1.6738 0.34844 2.0098 0.49778 0.59111 1.5804 0.85867 1.792 0.90844 0.29867 0.068444 0.63467 0.11822 0.98933 0.17422 0.54133 0.080889 1.1573 0.18044 1.5804 0.32978 0.68444 0.24267 1.2569 0.53511 1.6862 0.85244 0.21778 0.15556 0.38578 0.28622 0.51022 0.47289l-8.5369-0.006222z" stroke="null" fill="#f39c12"/></g></svg><svg width="20" height="20" id="form-person-icon" y="458"><g><title>background</title><rect id="form-person-icon-canvas_background" height="22" width="22" y="-1" x="-1" fill="none"/></g><g><title>Layer 1</title><path id="form-person-icon-svg_2" d="m202.4 201.7z"/><path id="form-person-icon-svg_3" stroke="null" d="m16.697 16.734c-0.80267-0.28622-1.9538-0.38578-2.688-0.54756-0.42311-0.093333-1.0391-0.32978-1.2444-0.57244-0.20533-0.24889-0.080889-2.5449-0.080889-2.5449s0.37956-0.59733 0.58489-1.12 0.42933-1.9538 0.42933-1.9538 0.42311 0 0.57244-0.74044c0.16178-0.80889 0.41067-1.1449 0.37956-1.7484-0.031111-0.56-0.32356-0.59111-0.35467-0.59111 0 0 0.30489-0.84622 0.34844-2.6382 0.049778-2.1218-1.5742-4.2124-4.6231-4.2124s-4.6667 2.0844-4.6231 4.2062c0.037333 1.7858 0.34844 2.6382 0.34844 2.6382-0.031111 0-0.32356 0.031111-0.35467 0.59111-0.031111 0.60356 0.224 0.92711 0.37956 1.736 0.14933 0.74044 0.57244 0.74667 0.57244 0.74667s0.224 1.4373 0.42933 1.96c0.20533 0.52889 0.58489 1.12 0.58489 1.12s0.12444 2.296-0.080889 2.5449c-0.20533 0.24889-0.82133 0.47911-1.2444 0.57244-0.74044 0.16178-1.8853 0.26756-2.688 0.55378-0.80267 0.28622-3.2791 1.2507-3.2791 3.2418h9.9555 9.9555c0-1.9911-2.4764-2.9556-3.2791-3.2418zm-6.6764 2.2462h-8.5431c0.12444-0.18667 0.29244-0.31733 0.51022-0.47289 0.43556-0.31733 1.0018-0.60978 1.6862-0.84622 0.42311-0.14933 1.0391-0.24889 1.5804-0.32978 0.35467-0.056 0.69067-0.10578 0.98933-0.17422 0.21156-0.049778 1.2942-0.31111 1.792-0.90844 0.28-0.336 0.36089-0.79022 0.34844-2.0098-0.006222-0.62222-0.037333-1.2009-0.037333-1.2258l-0.012444-0.26133-0.14311-0.21778c-0.093333-0.14311-0.36089-0.59111-0.49778-0.952-0.112-0.29244-0.28622-1.1947-0.37333-1.7484 0 0 0.024889 0.062222-0.031111-0.23022s-0.52267-0.26756-0.58489-0.49778c-0.056-0.224-0.112-0.42933-0.26756-1.1324-0.15556-0.70311 0.17422-0.69689 0.24267-1.008 0.037333-0.19289 0-0.35467 0-0.36089-0.018667-0.062222-0.25511-0.83378-0.29244-2.3458-0.018667-0.82133 0.28622-1.5929 0.85867-2.1716 0.65956-0.672 1.6178-1.0267 2.7689-1.0267 1.1822 0 2.1156 0.35467 2.7751 1.0267 0.57244 0.57867 0.87733 1.3502 0.85867 2.1716-0.031111 1.5058-0.26756 2.2773-0.29244 2.3458 0 0.006222-0.037333 0.10578-0.024889 0.32356 0.012444 0.336 0.42311 0.34222 0.26756 1.0453-0.15556 0.70311-0.21156 0.90844-0.26756 1.1324-0.056 0.224-0.52889 0.20533-0.58489 0.49778-0.056 0.29244-0.031111 0.23022-0.031111 0.23022-0.087111 0.55378-0.26133 1.456-0.37333 1.7484-0.14311 0.36089-0.41067 0.80889-0.49778 0.952l-0.14311 0.21778-0.012444 0.26133c0 0.024889-0.031111 0.60356-0.037333 1.2258-0.012444 1.2196 0.068444 1.6738 0.34844 2.0098 0.49778 0.59111 1.5804 0.85867 1.792 0.90844 0.29867 0.068444 0.63467 0.11822 0.98933 0.17422 0.54133 0.080889 1.1573 0.18044 1.5804 0.32978 0.68444 0.24267 1.2569 0.53511 1.6862 0.85244 0.21778 0.15556 0.38578 0.28622 0.51022 0.47289l-8.5369-0.006222z"/></g></svg><svg width="16" height="16" id="left-arrow" y="478"><g><title>background</title><rect id="left-arrow-canvas_background" height="18" width="18" y="-1" x="-1" fill="none"/></g><g><title>Layer 1</title><polygon id="left-arrow-svg_1" stroke="null" points="11.74 2.3667 10.889 1.5694 3.849 8.1449 10.889 14.72 11.74 13.927 5.5545 8.1449"/></g></svg><svg width="32" height="32" id="like-hover" y="494"><g><title>background</title><rect id="like-hover-canvas_background" height="402" width="582" y="-1" x="-1" fill="none"/></g><g fill="#f39c12"><title>Layer 1</title><path id="like-hover-svg_1" d="m29.116 10.472c-1.25-0.328-4.189-0.324-8.488-0.438 0.203-0.938 0.25-1.784 0.25-3.286 0-3.588-2.614-6.748-4.926-6.748-1.633 0-2.979 1.335-3 2.977-0.022 2.014-0.645 5.492-4 7.256-0.246 0.13-0.95 0.477-1.053 0.522l0.053 0.045c-0.525-0.453-1.253-0.8-2-0.8h-3c-1.654 0-3 1.346-3 3v16c0 1.654 1.346 3 3 3h3c1.19 0 2.186-0.719 2.668-1.727 0.012 0.004 0.033 0.01 0.047 0.012 0.066 0.018 0.144 0.037 0.239 0.062 0.018 0.005 0.027 0.007 0.046 0.012 0.576 0.143 1.685 0.408 4.055 0.953 0.508 0.116 3.192 0.688 5.972 0.688h5.467c1.666 0 2.867-0.641 3.582-1.928 0.01-0.02 0.24-0.469 0.428-1.076 0.141-0.457 0.193-1.104 0.023-1.76 1.074-0.738 1.42-1.854 1.645-2.58 0.377-1.191 0.264-2.086 0.002-2.727 0.604-0.57 1.119-1.439 1.336-2.766 0.135-0.822-0.01-1.668-0.389-2.372 0.566-0.636 0.824-1.436 0.854-2.176l0.012-0.209c0.007-0.131 0.013-0.212 0.013-0.5 0-1.263-0.875-2.874-2.836-3.434zm-22.164 18.528c0 0.553-0.447 1-1 1h-3c-0.553 0-1-0.447-1-1v-16c0-0.553 0.447-1 1-1h3c0.553 0 1 0.447 1 1v16zm22.977-14.465c-0.02 0.494-0.227 1.465-1.977 1.465h-2c-0.277 0-0.5 0.224-0.5 0.5s0.223 0.5 0.5 0.5h1.938s1.697 1.244 1.6 1.844c-0.124 0.746-0.474 2.156-2.163 2.156h-2.375c-0.277 0-0.5 0.223-0.5 0.5 0 0.275 0.223 0.5 0.5 0.5h1.969c1.688 0 1.539 1.287 1.297 2.055-0.319 1.009-0.514 1.945-2.641 1.945h-1.631c-0.277 0-0.5 0.223-0.5 0.5 0 0.275 0.223 0.5 0.5 0.5h1.568c1.094 0 1.145 1.035 1.031 1.406-0.125 0.406-0.273 0.707-0.279 0.721-0.302 0.545-0.789 0.873-1.82 0.873h-5.467c-2.746 0-5.47-0.623-5.54-0.639-4.154-0.957-4.373-1.031-4.634-1.105 0 0-0.846-0.143-0.846-0.881l-0.007-13.812c0-0.469 0.299-0.893 0.794-1.042 0.062-0.024 0.146-0.05 0.206-0.075 4.568-1.892 5.959-6.04 6-9.446 0.006-0.479 0.375-1 1-1 1.057 0 2.926 2.122 2.926 4.748 0 2.371-0.096 2.781-0.926 5.252 10 0 9.93 0.144 10.812 0.375 1.094 0.313 1.188 1.219 1.188 1.531 0 0.343-0.01 0.293-0.023 0.629z" clip-rule="evenodd" fill-rule="evenodd"/><path id="like-hover-svg_2" d="m4.5 26c-0.828 0-1.5 0.672-1.5 1.5s0.672 1.5 1.5 1.5 1.5-0.672 1.5-1.5-0.672-1.5-1.5-1.5zm0 2c-0.275 0-0.5-0.225-0.5-0.5s0.225-0.5 0.5-0.5 0.5 0.225 0.5 0.5-0.225 0.5-0.5 0.5z" clip-rule="evenodd" fill-rule="evenodd"/></g></svg><svg width="32" height="32" id="like" y="526"><g><title>background</title><rect id="like-canvas_background" height="402" width="582" y="-1" x="-1" fill="none"/></g><g><title fill="#ffffff">Layer 1</title><path id="like-svg_1" d="m29.164 10.472c-1.25-0.328-4.189-0.324-8.488-0.438 0.203-0.938 0.25-1.784 0.25-3.286 0-3.588-2.614-6.748-4.926-6.748-1.633 0-2.979 1.335-3 2.977-0.022 2.014-0.645 5.492-4 7.256-0.246 0.13-0.95 0.477-1.053 0.522l0.053 0.045c-0.525-0.453-1.253-0.8-2-0.8h-3c-1.654 0-3 1.346-3 3v16c0 1.654 1.346 3 3 3h3c1.19 0 2.186-0.719 2.668-1.727 0.012 0.004 0.033 0.01 0.047 0.012 0.066 0.018 0.144 0.037 0.239 0.062 0.018 0.005 0.027 0.007 0.046 0.012 0.576 0.143 1.685 0.408 4.055 0.953 0.508 0.116 3.192 0.688 5.972 0.688h5.467c1.666 0 2.867-0.641 3.582-1.928 0.01-0.02 0.24-0.469 0.428-1.076 0.141-0.457 0.193-1.104 0.023-1.76 1.074-0.738 1.42-1.854 1.645-2.58 0.377-1.191 0.264-2.086 0.002-2.727 0.604-0.57 1.119-1.439 1.336-2.766 0.135-0.822-0.01-1.668-0.389-2.372 0.566-0.636 0.824-1.436 0.854-2.176l0.012-0.209c0.007-0.131 0.013-0.212 0.013-0.5 0-1.263-0.875-2.874-2.836-3.434zm-22.164 18.528c0 0.553-0.447 1-1 1h-3c-0.553 0-1-0.447-1-1v-16c0-0.553 0.447-1 1-1h3c0.553 0 1 0.447 1 1v16zm22.977-14.465c-0.02 0.494-0.227 1.465-1.977 1.465h-2c-0.277 0-0.5 0.224-0.5 0.5s0.223 0.5 0.5 0.5h1.938s1.697 1.244 1.6 1.844c-0.124 0.746-0.474 2.156-2.163 2.156h-2.375c-0.277 0-0.5 0.223-0.5 0.5 0 0.275 0.223 0.5 0.5 0.5h1.969c1.688 0 1.539 1.287 1.297 2.055-0.319 1.009-0.514 1.945-2.641 1.945h-1.631c-0.277 0-0.5 0.223-0.5 0.5 0 0.275 0.223 0.5 0.5 0.5h1.568c1.094 0 1.145 1.035 1.031 1.406-0.125 0.406-0.273 0.707-0.279 0.721-0.302 0.545-0.789 0.873-1.82 0.873h-5.467c-2.746 0-5.47-0.623-5.54-0.639-4.154-0.957-4.373-1.031-4.634-1.105 0 0-0.846-0.143-0.846-0.881l-0.007-13.812c0-0.469 0.299-0.893 0.794-1.042 0.062-0.024 0.146-0.05 0.206-0.075 4.568-1.892 5.959-6.04 6-9.446 0.006-0.479 0.375-1 1-1 1.057 0 2.926 2.122 2.926 4.748 0 2.371-0.096 2.781-0.926 5.252 10 0 9.93 0.144 10.812 0.375 1.094 0.313 1.188 1.219 1.188 1.531 0 0.343-0.01 0.293-0.023 0.629z" fill="#fff" clip-rule="evenodd" fill-rule="evenodd"/><path id="like-svg_2" d="m4.5 26c-0.828 0-1.5 0.672-1.5 1.5s0.672 1.5 1.5 1.5 1.5-0.672 1.5-1.5-0.672-1.5-1.5-1.5zm0 2c-0.275 0-0.5-0.225-0.5-0.5s0.225-0.5 0.5-0.5 0.5 0.225 0.5 0.5-0.225 0.5-0.5 0.5z" fill="#fff" clip-rule="evenodd" fill-rule="evenodd"/></g></svg><svg width="32" height="32" id="mail" y="558"><title/><desc/><g><title>background</title><rect id="mail-canvas_background" height="402" width="582" y="-1" x="-1" fill="none"/></g><g><title>Layer 1</title><path id="mail-mail-envelope-closed" d="m7.0769 10.923l9.4231 8.0769 9.4231-8.0769-0.8077-0.8077-8.6154 7.3846-8.6154-7.3846-0.8077 0.8077zm-1.0733-2.9231c-1.1066 0-2.0036 0.89451-2.0036 1.9941v12.012c0 1.1013 0.88976 1.9941 2.0036 1.9941h20.993c1.1066 0 2.0036-0.89451 2.0036-1.9941v-12.012c0-1.1013-0.88976-1.9941-2.0036-1.9941h-20.993z"/><line id="mail-svg_4" stroke-linejoin="undefined" x1="3.6027" fill="none" y1="6.9132" stroke="#fff" stroke-linecap="undefined" x2="16.616" y2="15.315" stroke-width="1.5"/><line id="mail-svg_5" stroke-linejoin="undefined" x1="15.886" fill="none" y1="15.361" stroke="#fff" stroke-linecap="undefined" x2="28.26" y2="7.5525" stroke-width="1.5"/></g></svg><svg width="16" height="32" id="mark-map" y="590"><g><title>background</title><rect id="mark-map-canvas_background" height="402" width="582" y="-1" x="-1" fill="none"/></g><g><title>Layer 1</title><path id="mark-map-svg_1" d="m8 0c-4.418 0-8 3.582-8 8s8 24 8 24 8-19.582 8-24-3.582-8-8-8zm0 12c-2.209 0-4-1.791-4-4s1.791-4 4-4 4 1.791 4 4-1.791 4-4 4z"/></g></svg><svg viewBox="0 0 32 32" width="32" version="1.1" height="32" id="params" y="622"><title>params</title><path d="m8 6.021v-3.021c0-1.654-1.346-3-3-3s-3 1.346-3 3v3.021c-1.208 0.915-2 2.348-2 3.979s0.792 3.064 2 3.977v15.023c0 1.654 1.346 3 3 3s3-1.346 3-3v-15.023c1.208-0.912 2-2.346 2-3.977s-0.792-3.064-2-3.979zm-4-3.021c0-0.553 0.447-1 1-1s1 0.447 1 1v2.1c-0.323-0.065-0.657-0.1-1-0.1s-0.677 0.035-1 0.1v-2.1zm2 26c0 0.553-0.447 1-1 1s-1-0.447-1-1v-14.102c0.323 0.067 0.657 0.102 1 0.102s0.677-0.035 1-0.102v14.102zm1.865-18.16c-0.016 0.053-0.03 0.105-0.049 0.158-0.095 0.264-0.217 0.514-0.378 0.736-0.004 0.006-0.01 0.01-0.014 0.016-0.174 0.238-0.381 0.449-0.616 0.627-0.004 0.004-0.007 0.006-0.01 0.008-0.241 0.182-0.51 0.328-0.799 0.43-0.313 0.113-0.646 0.185-0.999 0.185s-0.686-0.072-1-0.186c-0.289-0.102-0.558-0.248-0.799-0.43-0.003-0.002-0.006-0.004-0.01-0.008-0.235-0.178-0.442-0.389-0.616-0.627-0.004-0.006-0.01-0.01-0.014-0.016-0.161-0.223-0.283-0.473-0.378-0.736-0.019-0.053-0.033-0.105-0.049-0.158-0.079-0.267-0.134-0.546-0.134-0.839 0-0.295 0.055-0.574 0.135-0.842 0.016-0.053 0.03-0.105 0.049-0.156 0.094-0.264 0.216-0.514 0.378-0.738 0.004-0.006 0.01-0.01 0.014-0.016 0.174-0.236 0.381-0.449 0.616-0.627 0.004-0.002 0.007-0.006 0.01-0.008 0.24-0.179 0.509-0.326 0.798-0.429 0.314-0.112 0.647-0.184 1-0.184s0.686 0.072 1 0.184c0.289 0.104 0.558 0.25 0.799 0.43 0.003 0.002 0.006 0.006 0.01 0.008 0.235 0.178 0.442 0.391 0.616 0.627 0.004 0.006 0.01 0.01 0.014 0.016 0.161 0.223 0.283 0.473 0.377 0.737 0.019 0.051 0.034 0.103 0.049 0.156 0.08 0.268 0.135 0.547 0.135 0.842 0 0.293-0.055 0.572-0.135 0.84zm22.135-4.819v-3.021c0-1.654-1.346-3-3-3s-3 1.346-3 3v3.021c-1.209 0.915-2 2.348-2 3.979s0.791 3.064 2 3.977v15.023c0 1.654 1.346 3 3 3s3-1.346 3-3v-15.023c1.207-0.912 2-2.346 2-3.977s-0.793-3.064-2-3.979zm-4-3.021c0-0.553 0.447-1 1-1s1 0.447 1 1v2.1c-0.324-0.065-0.658-0.1-1-0.1-0.344 0-0.678 0.035-1 0.1v-2.1zm2 26c0 0.553-0.447 1-1 1s-1-0.447-1-1v-14.102c0.322 0.067 0.656 0.102 1 0.102 0.342 0 0.676-0.035 1-0.102v14.102zm1.865-18.16c-0.016 0.053-0.031 0.105-0.049 0.158-0.096 0.264-0.217 0.514-0.379 0.736-0.004 0.006-0.01 0.01-0.014 0.016-0.174 0.238-0.381 0.449-0.615 0.627-0.004 0.004-0.008 0.006-0.01 0.008-0.242 0.182-0.51 0.328-0.799 0.43-0.313 0.113-0.647 0.185-0.999 0.185-0.354 0-0.686-0.072-1-0.186-0.289-0.102-0.559-0.248-0.799-0.43-0.004-0.002-0.006-0.004-0.01-0.008-0.236-0.178-0.443-0.389-0.617-0.627-0.004-0.006-0.01-0.01-0.014-0.016-0.16-0.223-0.283-0.473-0.377-0.736-0.02-0.053-0.033-0.105-0.049-0.158-0.079-0.267-0.134-0.546-0.134-0.839 0-0.295 0.055-0.574 0.135-0.842 0.016-0.053 0.029-0.105 0.049-0.156 0.094-0.264 0.217-0.514 0.377-0.738 0.004-0.006 0.01-0.01 0.014-0.016 0.174-0.236 0.381-0.449 0.617-0.627 0.004-0.002 0.006-0.006 0.01-0.008 0.24-0.18 0.51-0.326 0.799-0.43 0.313-0.111 0.645-0.183 0.999-0.183 0.352 0 0.686 0.072 1 0.184 0.289 0.104 0.557 0.25 0.799 0.43 0.002 0.002 0.006 0.006 0.01 0.008 0.234 0.178 0.441 0.391 0.615 0.627 0.004 0.006 0.01 0.01 0.014 0.016 0.162 0.225 0.283 0.475 0.379 0.738 0.018 0.051 0.033 0.104 0.049 0.156 0.079 0.267 0.134 0.546 0.134 0.841 0 0.293-0.055 0.572-0.135 0.84zm-10.865 7.181v-15.021c0-1.654-1.346-3-3-3s-3 1.346-3 3v15.021c-1.208 0.914-2 2.348-2 3.979s0.792 3.064 2 3.977v3.023c0 1.654 1.346 3 3 3s3-1.346 3-3v-3.023c1.207-0.912 2-2.346 2-3.977s-0.793-3.064-2-3.979zm-4-15.021c0-0.553 0.447-1 1-1s1 0.447 1 1v14.1c-0.324-0.064-0.658-0.1-1-0.1-0.343 0-0.677 0.035-1 0.1v-14.1zm2 26c0 0.553-0.447 1-1 1s-1-0.447-1-1v-2.102c0.323 0.067 0.657 0.102 1 0.102 0.342 0 0.676-0.035 1-0.102v2.102zm1.865-6.16c-0.016 0.053-0.031 0.105-0.049 0.158-0.096 0.264-0.217 0.514-0.379 0.736-0.004 0.006-0.01 0.01-0.014 0.016-0.174 0.238-0.381 0.449-0.615 0.627-0.004 0.004-0.008 0.006-0.01 0.008-0.242 0.182-0.51 0.328-0.799 0.43-0.313 0.113-0.647 0.185-0.999 0.185s-0.686-0.072-1-0.186c-0.289-0.102-0.558-0.248-0.799-0.43-0.003-0.002-0.006-0.004-0.01-0.008-0.235-0.178-0.442-0.389-0.616-0.627-0.004-0.006-0.01-0.01-0.014-0.016-0.161-0.223-0.283-0.473-0.378-0.736-0.019-0.053-0.033-0.105-0.049-0.158-0.079-0.267-0.134-0.546-0.134-0.839 0-0.295 0.055-0.574 0.135-0.842 0.016-0.053 0.03-0.105 0.049-0.156 0.095-0.264 0.217-0.514 0.378-0.738 0.004-0.006 0.01-0.01 0.014-0.016 0.174-0.236 0.381-0.449 0.616-0.627 0.004-0.002 0.007-0.006 0.01-0.008 0.241-0.18 0.51-0.326 0.799-0.43 0.313-0.111 0.646-0.183 0.999-0.183 0.352 0 0.686 0.072 1 0.184 0.289 0.104 0.557 0.25 0.799 0.43 0.002 0.002 0.006 0.006 0.01 0.008 0.234 0.178 0.441 0.391 0.615 0.627 0.004 0.006 0.01 0.01 0.014 0.016 0.162 0.225 0.283 0.475 0.379 0.738 0.018 0.051 0.033 0.104 0.049 0.156 0.079 0.267 0.134 0.546 0.134 0.841 0 0.293-0.055 0.572-0.135 0.84z"/></svg><svg width="24" height="24" id="pencil" y="654"><g><title>background</title><rect id="pencil-canvas_background" height="402" width="582" y="-1" x="-1" fill="none"/></g><g><title>Layer 1</title><path id="pencil-svg_1" d="m21 6.879l-3.879-3.879c-0.293-0.293-0.678-0.439-1.061-0.439-0.384 0-0.767 0.146-1.06 0.439l-10.939 10.939c-0.293 0.293-0.558 0.727-0.75 1.188-0.192 0.463-0.311 0.959-0.311 1.373v4.5h4.5c0.414 0 0.908-0.119 1.371-0.311s0.896-0.457 1.189-0.75l10.94-10.939c0.293-0.293 0.439-0.678 0.439-1.061 0-0.384-0.146-0.767-0.439-1.06zm-15.232 8.182l8.293-8.293 1.232 1.232-8.293 8.293-1.232-1.232zm1.732 3.939h-1.5l-1-1v-1.5c0-0.077 0.033-0.305 0.158-0.605 0.01-0.02 2.967 2.938 2.967 2.938-0.322 0.134-0.548 0.167-0.625 0.167zm1.439-0.768l-1.232-1.232 8.293-8.293 1.232 1.232-8.293 8.293zm9-9l-3.172-3.172 1.293-1.293 3.17 3.172-1.291 1.293z" fill="#9f9f9f"/></g></svg><svg width="35" height="35" id="person-small-hover" y="678"><g><title>background</title><rect id="person-small-hover-canvas_background" height="37" width="37" y="-1" x="-1" fill="none"/></g><g><title>Layer 1</title><path id="person-small-hover-usericon" d="m33.953 30.925c-0.21937-0.14515-4.1996-2.7557-10.12-4.037 2.1718-2.7514 3.5666-6.4522 4.1592-8.9155 0.8229-3.4138 0.50313-10.093-2.7754-14.256-1.9165-2.4327-4.598-3.7172-7.7542-3.7172-3.1563 0-5.8378 1.2856-7.7532 3.7172-3.2785 4.1614-3.5972 10.841-2.7754 14.254 0.59262 2.4632 1.9863 6.1641 4.1592 8.9155-5.9207 1.2813-9.901 3.8919-10.119 4.037-0.79998 0.53259-1.158 1.5279-0.87856 2.4469 0.27721 0.92222 1.1274 1.553 2.0878 1.553h30.559c0.9615 0 1.8095-0.63082 2.0889-1.5519 0.28048-0.91894-0.077488-1.9143-0.87747-2.4469zm-11.834-5.3892l-0.35579 0.45183c-2.6029 2.9904-5.9971 2.9904-8.599 0l-0.35688-0.45183c-3.0395-3.8515-4.5478-8.946-3.8984-13.806 0.5948-4.67 3.2709-9.5474 8.5531-9.5474 5.2823 0 7.9594 4.8785 8.5542 9.5485 0.64719 4.8621-0.85564 9.9512-3.8973 13.805zm-19.936 7.2053c0.15061-0.10041 3.8482-2.5254 9.3706-3.7194l2.711-0.58607c0.96805 0.63518 2.03 1.0314 3.1977 1.0314 1.1689 0 2.2297-0.39617 3.1977-1.0314l2.711 0.58607c5.4787 1.1852 9.1632 3.583 9.3706 3.7194h-30.559z" stroke="null" fill="#f39c12"/></g></svg><svg width="35" height="35" id="person-small" y="713"><g><title>background</title><rect id="person-small-canvas_background" height="37" width="37" y="-1" x="-1" fill="none"/></g><g><title>Layer 1</title><path id="person-small-usericon" d="m33.953 30.925c-0.21937-0.14515-4.1996-2.7557-10.12-4.037 2.1718-2.7514 3.5666-6.4522 4.1592-8.9155 0.8229-3.4138 0.50313-10.093-2.7754-14.256-1.9165-2.4327-4.598-3.7172-7.7542-3.7172-3.1563 0-5.8378 1.2856-7.7532 3.7172-3.2785 4.1614-3.5972 10.841-2.7754 14.254 0.59262 2.4632 1.9863 6.1641 4.1592 8.9155-5.9207 1.2813-9.901 3.8919-10.119 4.037-0.79998 0.53259-1.158 1.5279-0.87856 2.4469 0.27721 0.92222 1.1274 1.553 2.0878 1.553h30.559c0.9615 0 1.8095-0.63082 2.0889-1.5519 0.28048-0.91894-0.077488-1.9143-0.87747-2.4469zm-11.834-5.3892l-0.35579 0.45183c-2.6029 2.9904-5.9971 2.9904-8.599 0l-0.35688-0.45183c-3.0395-3.8515-4.5478-8.946-3.8984-13.806 0.5948-4.67 3.2709-9.5474 8.5531-9.5474 5.2823 0 7.9594 4.8785 8.5542 9.5485 0.64719 4.8621-0.85564 9.9512-3.8973 13.805zm-19.936 7.2053c0.15061-0.10041 3.8482-2.5254 9.3706-3.7194l2.711-0.58607c0.96805 0.63518 2.03 1.0314 3.1977 1.0314 1.1689 0 2.2297-0.39617 3.1977-1.0314l2.711 0.58607c5.4787 1.1852 9.1632 3.583 9.3706 3.7194h-30.559z" stroke="null" fill="#fff"/></g></svg><svg width="300" height="300" viewBox="0 0 512 512" id="person" y="748"><g><title>background</title><rect id="person-canvas_background" height="402" width="582" y="-1" x="-1" fill="none"/></g><g><title>Layer 1</title><path id="person-svg_1" d="m448 448s0-26.4-2.2-40.2c-1.8-10.9-16.9-25.3-81.1-48.9-63.2-23.2-59.3-11.9-59.3-54.6 0-27.7 14.1-11.6 23.1-64.2 3.5-20.7 6.3-6.9 13.9-40.1 4-17.4-2.7-18.7-1.9-27s1.6-15.7 3.1-32.7c1.8-21-17.7-76.3-87.6-76.3s-89.4 55.3-87.5 76.4c1.5 16.9 2.3 24.4 3.1 32.7s-5.9 9.6-1.9 27c7.6 33.1 10.4 19.3 13.9 40.1 9 52.6 23.1 36.5 23.1 64.2 0 42.8 3.9 31.5-59.3 54.6-64.2 23.5-79.4 38-81.1 48.9-2.3 13.7-2.3 40.1-2.3 40.1h192 192z" fill="#fff"/></g></svg><svg xmlns:xlink="http://www.w3.org/1999/xlink" id="phone" style="enable-background:new 0 0 80 80" xml:space="preserve" height="80" viewBox="0 0 80 80" width="80" version="1.1" y="1048"><path d="m46.143 46.143c-7.917 7.917-17.085 15.485-20.708 11.861-5.189-5.188-8.388-9.707-19.825-0.515-11.438 9.196-2.653 15.323 2.373 20.351 5.8 5.799 27.421 0.305 48.792-21.063 21.368-21.373 26.866-42.994 21.062-48.796-5.027-5.027-11.154-13.809-20.346-2.37-9.194 11.434-4.677 14.634 0.513 19.823 3.622 3.624-3.944 12.791-11.861 20.709z"/></svg><svg width="25" height="25" id="picture" y="1128"><g><title>background</title><rect id="picture-canvas_background" height="27" width="27" y="-1" x="-1" fill="none"/></g><g><title fill="#ffffff">Layer 1</title><g stroke="null" fill="#fff"><polygon id="picture-svg_3" points="24.576 24.781 6.822 24.781 6.822 23.821 23.616 23.821 23.616 7.0274 24.576 7.0274"/><polygon id="picture-svg_5" points="23.178 23.315 3.1507 23.315 3.1507 22.288 22.151 22.288 22.151 3.2877 23.178 3.2877"/><path id="picture-svg_7" d="m20.627 1.1541v19.541h-19.541v-19.541h19.541m1.0856-1.0856h-21.713v21.713h21.713v-21.713z"/><path id="picture-svg_9" d="m5.6142 18.412l-0.96531-0.57919 3.3772-5.6286c0.093998-0.15591 0.25779-0.25779 0.43903-0.2713 0.18406-0.01576 0.35967 0.060789 0.47562 0.20094l2.3319 2.798 4.0847-6.1273c0.11708-0.17561 0.32308-0.27018 0.53247-0.2471 0.20995 0.024203 0.38838 0.16379 0.46267 0.36192l3.3772 9.0058-1.0542 0.39513-2.9911-7.9769-3.8933 5.8397c-0.098501 0.14803-0.26117 0.24034-0.43847 0.24991-0.17674 0.007317-0.34898-0.065292-0.46211-0.2015l-2.3072-2.7682-2.9691 4.9487z"/><path id="picture-svg_11" d="m6.7946 7.6987c-0.95948 0-1.7398-0.78028-1.7398-1.7398s0.78028-1.7398 1.7398-1.7398 1.7398 0.78028 1.7398 1.7398-0.78028 1.7398-1.7398 1.7398zm0-2.6096c-0.47974 0-0.86988 0.39014-0.86988 0.86988s0.39014 0.86988 0.86988 0.86988 0.86988-0.39014 0.86988-0.86988-0.39014-0.86988-0.86988-0.86988z"/><rect id="picture-svg_13" height="1.0788" width="21.576" y="17.743" x="-.20548"/></g></g></svg><svg width="16" height="16" id="right-arrow" y="1153"><g><title>background</title><rect id="right-arrow-canvas_background" height="18" width="18" y="-1" x="-1" fill="none"/></g><g><title>Layer 1</title><polygon id="right-arrow-svg_1" stroke="null" points="11.74 2.3667 10.889 1.5694 3.849 8.1449 10.889 14.72 11.74 13.927 5.5545 8.1449" transform="rotate(180.03 7.7943 8.1449)"/></g></svg><svg width="35" height="35" id="stack-hover" y="1169"><g><title>background</title><rect id="stack-hover-canvas_background" height="37" width="37" y="-1" x="-1" fill="none"/></g><g><title>Layer 1</title><path id="stack-hover-svg_1" d="m34.891 19.984l-4.3739-16.401c-0.26449-0.93227-1.129-1.5837-2.1006-1.5837h-10.929-10.929c-0.97271 0-1.8361 0.65139-2.1006 1.5837l-4.3739 16.401c-0.05574 0.19891-0.083063 0.39892-0.083063 0.59565v7.6505c0 2.4143 1.9574 4.3717 4.3717 4.3717h26.23c2.4143 0 4.3717-1.9574 4.3717-4.3717v-7.6505c0-0.19673-0.027323-0.39674-0.083063-0.59565zm-2.1028 8.2462c0 1.2044-0.98146 2.1859-2.1859 2.1859h-26.23c-1.2055 0-2.1859-0.98146-2.1859-2.1859v-7.6505l4.3728-16.395h21.855l4.3739 16.395v7.6505z" stroke="null" fill="#f39c12"/><path id="stack-hover-svg_2" d="m26.012 6h-17.247c-0.50459 0-0.9468 0.33973-1.0771 0.82761l-3.8373 13.367c-0.087996 0.33528-0.017822 0.69172 0.19382 0.96573s0.53689 0.43441 0.88219 0.43441h3.2369 1.2709 0.58033l1.6118 3.2247c0.37872 0.7541 1.1495 1.2308 1.9938 1.2308h7.5365c0.84432 0 1.614-0.47674 1.9927-1.2308l1.6118-3.2247h0.58033 1.2709 3.2369c0.34642 0 0.67278-0.16151 0.8833-0.43553s0.2807-0.63046 0.19382-0.96573l-3.8373-13.367c-0.13032-0.48788-0.57253-0.8265-1.0771-0.8265zm0.60038 13.367h-1.8513c-0.84878 0-1.6118 0.47006-1.9927 1.2308l-1.6118 3.2247h-7.5365l-1.6118-3.2247c-0.38095-0.76078-1.144-1.2308-1.9927-1.2308h-1.8513-2.6566l3.257-12.253h17.247l3.257 12.253h-2.6566z" stroke="null" fill="#f39c12"/></g></svg><svg width="35" height="35" id="stack" y="1204"><g><title>background</title><rect id="stack-canvas_background" height="37" width="37" y="-1" x="-1" fill="none"/></g><g><title>Layer 1</title><path id="stack-svg_1" d="m34.891 19.984l-4.3739-16.401c-0.26449-0.93227-1.129-1.5837-2.1006-1.5837h-10.929-10.929c-0.97271 0-1.8361 0.65139-2.1006 1.5837l-4.3739 16.401c-0.05574 0.19891-0.083063 0.39892-0.083063 0.59565v7.6505c0 2.4143 1.9574 4.3717 4.3717 4.3717h26.23c2.4143 0 4.3717-1.9574 4.3717-4.3717v-7.6505c0-0.19673-0.027323-0.39674-0.083063-0.59565zm-2.1028 8.2462c0 1.2044-0.98146 2.1859-2.1859 2.1859h-26.23c-1.2055 0-2.1859-0.98146-2.1859-2.1859v-7.6505l4.3728-16.395h21.855l4.3739 16.395v7.6505z" stroke="null" fill="#fff"/><path id="stack-svg_2" d="m26.012 6h-17.247c-0.50459 0-0.9468 0.33973-1.0771 0.82761l-3.8373 13.367c-0.087996 0.33528-0.017822 0.69172 0.19382 0.96573s0.53689 0.43441 0.88219 0.43441h3.2369 1.2709 0.58033l1.6118 3.2247c0.37872 0.7541 1.1495 1.2308 1.9938 1.2308h7.5365c0.84432 0 1.614-0.47674 1.9927-1.2308l1.6118-3.2247h0.58033 1.2709 3.2369c0.34642 0 0.67278-0.16151 0.8833-0.43553s0.2807-0.63046 0.19382-0.96573l-3.8373-13.367c-0.13032-0.48788-0.57253-0.8265-1.0771-0.8265zm0.60038 13.367h-1.8513c-0.84878 0-1.6118 0.47006-1.9927 1.2308l-1.6118 3.2247h-7.5365l-1.6118-3.2247c-0.38095-0.76078-1.144-1.2308-1.9927-1.2308h-1.8513-2.6566l3.257-12.253h17.247l3.257 12.253h-2.6566z" stroke="null" fill="#fff"/></g></svg><svg width="32" height="32" id="star-hover" y="1239"><g><title>background</title><rect id="star-hover-canvas_background" height="402" width="582" y="-1" x="-1" fill="none"/></g><g><title>Layer 1</title><path id="star-hover-star" d="m31.881 12.557c-0.277-0.799-0.988-1.384-1.844-1.511l-8.326-1.238-3.619-7.514c-0.381-0.789-1.196-1.294-2.092-1.294s-1.711 0.505-2.092 1.294l-3.619 7.514-8.327 1.238c-0.855 0.127-1.566 0.712-1.842 1.511-0.275 0.801-0.067 1.683 0.537 2.285l6.102 6.092-1.415 8.451c-0.144 0.851 0.225 1.705 0.948 2.203 0.397 0.273 0.864 0.412 1.331 0.412 0.384 0 0.769-0.094 1.118-0.281l7.259-3.908 7.26 3.908c0.349 0.187 0.734 0.281 1.117 0.281 0.467 0 0.934-0.139 1.332-0.412 0.723-0.498 1.09-1.352 0.947-2.203l-1.416-8.451 6.104-6.092c0.603-0.603 0.81-1.485 0.537-2.285zm-8.293 6.806c-0.512 0.51-0.744 1.229-0.627 1.934l1.416 8.451-7.26-3.906c-0.348-0.188-0.732-0.281-1.118-0.281-0.384 0-0.769 0.094-1.117 0.281l-7.26 3.906 1.416-8.451c0.118-0.705-0.114-1.424-0.626-1.934l-6.102-6.092 8.326-1.24c0.761-0.113 1.416-0.589 1.743-1.268l3.621-7.512 3.62 7.513c0.328 0.679 0.982 1.154 1.742 1.268l8.328 1.24-6.102 6.091z" fill="#fff"/></g></svg><svg width="32" height="32" id="star" y="1271"><g><title>background</title><rect id="star-canvas_background" height="402" width="582" y="-1" x="-1" fill="none"/></g><g><title>Layer 1</title><path id="star-star" d="m31.881 12.557c-0.277-0.799-0.988-1.384-1.844-1.511l-8.326-1.238-3.619-7.514c-0.381-0.789-1.196-1.294-2.092-1.294s-1.711 0.505-2.092 1.294l-3.619 7.514-8.327 1.238c-0.855 0.127-1.566 0.712-1.842 1.511-0.275 0.801-0.067 1.683 0.537 2.285l6.102 6.092-1.415 8.451c-0.144 0.851 0.225 1.705 0.948 2.203 0.397 0.273 0.864 0.412 1.331 0.412 0.384 0 0.769-0.094 1.118-0.281l7.259-3.908 7.26 3.908c0.349 0.187 0.734 0.281 1.117 0.281 0.467 0 0.934-0.139 1.332-0.412 0.723-0.498 1.09-1.352 0.947-2.203l-1.416-8.451 6.104-6.092c0.603-0.603 0.81-1.485 0.537-2.285zm-8.293 6.806c-0.512 0.51-0.744 1.229-0.627 1.934l1.416 8.451-7.26-3.906c-0.348-0.188-0.732-0.281-1.118-0.281-0.384 0-0.769 0.094-1.117 0.281l-7.26 3.906 1.416-8.451c0.118-0.705-0.114-1.424-0.626-1.934l-6.102-6.092 8.326-1.24c0.761-0.113 1.416-0.589 1.743-1.268l3.621-7.512 3.62 7.513c0.328 0.679 0.982 1.154 1.742 1.268l8.328 1.24-6.102 6.091z" fill="#333"/></g></svg><svg width="57" height="57" id="twitter-icon-hover" y="1303"><g><title>background</title><rect id="twitter-icon-hover-canvas_background" height="402" width="582" y="-1" x="-1" fill="none"/></g><g><title>Layer 1</title><path id="twitter-icon-hover-svg_1" d="m52.837 15.065c-1.811 0.805-3.76 1.348-5.805 1.591 2.088-1.25 3.689-3.23 4.444-5.592-1.953 1.159-4.115 2-6.418 2.454-1.843-1.964-4.47-3.192-7.377-3.192-5.581 0-10.106 4.525-10.106 10.107 0 0.791 0.089 1.562 0.262 2.303-8.4-0.422-15.848-4.445-20.833-10.56-0.87 1.492-1.368 3.228-1.368 5.082 0 3.506 1.784 6.6 4.496 8.412-1.656-0.053-3.215-0.508-4.578-1.265-0.001 0.042-0.001 0.085-0.001 0.128 0 4.896 3.484 8.98 8.108 9.91-0.848 0.23-1.741 0.354-2.663 0.354-0.652 0-1.285-0.063-1.902-0.182 1.287 4.015 5.019 6.938 9.441 7.019-3.459 2.711-7.816 4.327-12.552 4.327-0.815 0-1.62-0.048-2.411-0.142 4.474 2.869 9.786 4.541 15.493 4.541 18.591 0 28.756-15.4 28.756-28.756 0-0.438-0.009-0.875-0.028-1.309 1.974-1.422 3.688-3.203 5.042-5.23z" fill="#fff"/></g></svg><svg width="57" height="57" id="twitter-icon" y="1360"><g><title>background</title><rect id="twitter-icon-canvas_background" height="402" width="582" y="-1" x="-1" fill="none"/></g><g><title>Layer 1</title><path id="twitter-icon-svg_1" d="m52.837 15.065c-1.811 0.805-3.76 1.348-5.805 1.591 2.088-1.25 3.689-3.23 4.444-5.592-1.953 1.159-4.115 2-6.418 2.454-1.843-1.964-4.47-3.192-7.377-3.192-5.581 0-10.106 4.525-10.106 10.107 0 0.791 0.089 1.562 0.262 2.303-8.4-0.422-15.848-4.445-20.833-10.56-0.87 1.492-1.368 3.228-1.368 5.082 0 3.506 1.784 6.6 4.496 8.412-1.656-0.053-3.215-0.508-4.578-1.265-0.001 0.042-0.001 0.085-0.001 0.128 0 4.896 3.484 8.98 8.108 9.91-0.848 0.23-1.741 0.354-2.663 0.354-0.652 0-1.285-0.063-1.902-0.182 1.287 4.015 5.019 6.938 9.441 7.019-3.459 2.711-7.816 4.327-12.552 4.327-0.815 0-1.62-0.048-2.411-0.142 4.474 2.869 9.786 4.541 15.493 4.541 18.591 0 28.756-15.4 28.756-28.756 0-0.438-0.009-0.875-0.028-1.309 1.974-1.422 3.688-3.203 5.042-5.23z" fill="#f39c12"/></g></svg><svg width="32" height="32" id="world-hover" y="1417"><g><title>background</title><rect id="world-hover-canvas_background" height="34" width="34" y="-1" x="-1" fill="none"/></g><g><title>Layer 1</title><path id="world-hover-svg_1" d="m15.985 0.1492h-0.01539-0.007695-0.01539c-8.8262 0.023085-15.967 7.1795-15.967 16.006 0 8.8262 7.141 15.983 15.967 16.006h0.01539 0.007695 0.01539c8.8416 0 16.006-7.1641 16.006-16.006 0-8.8416-7.1641-16.006-16.006-16.006zm0.63869 9.5803c1.7006-0.04617 3.3473-0.26933 4.9402-0.65408 0.47709 1.8853 0.7772 4.063 0.82337 6.4485h-5.7636v-5.7944zm0-1.2851v-6.9102c1.7237 0.47709 3.4782 2.7779 4.5863 6.3099-1.4774 0.35397-3.0088 0.55404-4.5863 0.60021zm-1.2774-6.9255v6.9332c-1.5929-0.04617-3.1396-0.25394-4.6247-0.6156 1.1235-3.5551 2.8856-5.8713 4.6247-6.3176zm0 8.2106v5.7867h-5.8021c0.04617-2.3855 0.34628-4.5632 0.82337-6.4485 1.6006 0.38475 3.2704 0.6156 4.9787 0.66178zm-7.0948 5.7867h-6.9717c0.13851-3.2935 1.3697-6.3099 3.332-8.6954 1.4236 0.7849 2.9395 1.4313 4.5247 1.9084-0.52326 2.0392-0.83107 4.34-0.88493 6.787zm0 1.2774c0.04617 2.4393 0.35397 4.7478 0.87724 6.787-1.5852 0.48479-3.0934 1.1235-4.5247 1.9084-1.9622-2.3855-3.1858-5.4019-3.332-8.6954h6.9794zm1.2928 0h5.8021v5.779c-1.7083 0.04617-3.3781 0.27702-4.9787 0.66947-0.47709-1.8853-0.7772-4.063-0.82337-6.4485zm5.8021 7.0641v6.9409c-1.7391-0.45401-3.5012-2.7625-4.6247-6.3176 1.4851-0.36936 3.0319-0.57713 4.6247-0.6233zm1.2774 6.9179v-6.9255c1.5775 0.04617 3.1088 0.25394 4.5939 0.60791-1.1158 3.5397-2.8626 5.8405-4.5939 6.3176zm0-8.2029v-5.779h5.7636c-0.04617 2.3778-0.34628 4.5555-0.82337 6.4408-1.5929-0.38475-3.2396-0.6156-4.9402-0.66178zm7.0487-5.779h7.0179c-0.13851 3.2935-1.3697 6.3022-3.332 8.6954-1.439-0.79259-2.9626-1.439-4.5632-1.9238 0.52326-2.0392 0.83107-4.3323 0.87724-6.7716zm0-1.2774c-0.04617-2.4393-0.35397-4.7402-0.86954-6.7793 1.6006-0.48479 3.1242-1.1312 4.5555-1.9161 1.9622 2.3855 3.1934 5.4019 3.332 8.7031h-7.0179v-0.007695zm2.8087-9.6804c-1.2774 0.67716-2.6163 1.2389-4.0245 1.6621-0.74642-2.4086-1.8006-4.3708-3.0395-5.6636 2.724 0.65408 5.1557 2.07 7.0641 4.0014zm-13.974-3.986c-1.2389 1.2851-2.2854 3.2473-3.0242 5.6405-1.3928-0.42323-2.724-0.97727-3.986-1.6544 1.8853-1.9238 4.3015-3.332 7.0102-3.986zm-7.0179 24.616c1.262-0.67716 2.6009-1.2312 3.986-1.6544 0.74642 2.4009 1.7929 4.3554 3.0319 5.6482-2.7087-0.65408-5.1249-2.0623-7.0179-3.9937zm13.928 4.0091c1.2466-1.2928 2.2931-3.255 3.0472-5.6713 1.4082 0.42323 2.7471 0.98497 4.0245 1.6621-1.9084 1.9392-4.3477 3.355-7.0718 4.0091z" stroke="null" fill="#fff"/></g></svg><svg width="32" height="32" id="world" y="1449"><g><title>background</title><rect id="world-canvas_background" height="34" width="34" y="-1" x="-1" fill="none"/></g><g><title>Layer 1</title><path id="world-svg_1" stroke="null" d="m15.985 0.1492h-0.01539-0.007695-0.01539c-8.8262 0.023085-15.967 7.1795-15.967 16.006 0 8.8262 7.141 15.983 15.967 16.006h0.01539 0.007695 0.01539c8.8416 0 16.006-7.1641 16.006-16.006 0-8.8416-7.1641-16.006-16.006-16.006zm0.63869 9.5803c1.7006-0.04617 3.3473-0.26933 4.9402-0.65408 0.47709 1.8853 0.7772 4.063 0.82337 6.4485h-5.7636v-5.7944zm0-1.2851v-6.9102c1.7237 0.47709 3.4782 2.7779 4.5863 6.3099-1.4774 0.35397-3.0088 0.55404-4.5863 0.60021zm-1.2774-6.9255v6.9332c-1.5929-0.04617-3.1396-0.25394-4.6247-0.6156 1.1235-3.5551 2.8856-5.8713 4.6247-6.3176zm0 8.2106v5.7867h-5.8021c0.04617-2.3855 0.34628-4.5632 0.82337-6.4485 1.6006 0.38475 3.2704 0.6156 4.9787 0.66178zm-7.0948 5.7867h-6.9717c0.13851-3.2935 1.3697-6.3099 3.332-8.6954 1.4236 0.7849 2.9395 1.4313 4.5247 1.9084-0.52326 2.0392-0.83107 4.34-0.88493 6.787zm0 1.2774c0.04617 2.4393 0.35397 4.7478 0.87724 6.787-1.5852 0.48479-3.0934 1.1235-4.5247 1.9084-1.9622-2.3855-3.1858-5.4019-3.332-8.6954h6.9794zm1.2928 0h5.8021v5.779c-1.7083 0.04617-3.3781 0.27702-4.9787 0.66947-0.47709-1.8853-0.7772-4.063-0.82337-6.4485zm5.8021 7.0641v6.9409c-1.7391-0.45401-3.5012-2.7625-4.6247-6.3176 1.4851-0.36936 3.0319-0.57713 4.6247-0.6233zm1.2774 6.9179v-6.9255c1.5775 0.04617 3.1088 0.25394 4.5939 0.60791-1.1158 3.5397-2.8626 5.8405-4.5939 6.3176zm0-8.2029v-5.779h5.7636c-0.04617 2.3778-0.34628 4.5555-0.82337 6.4408-1.5929-0.38475-3.2396-0.6156-4.9402-0.66178zm7.0487-5.779h7.0179c-0.13851 3.2935-1.3697 6.3022-3.332 8.6954-1.439-0.79259-2.9626-1.439-4.5632-1.9238 0.52326-2.0392 0.83107-4.3323 0.87724-6.7716zm0-1.2774c-0.04617-2.4393-0.35397-4.7402-0.86954-6.7793 1.6006-0.48479 3.1242-1.1312 4.5555-1.9161 1.9622 2.3855 3.1934 5.4019 3.332 8.7031h-7.0179v-0.007695zm2.8087-9.6804c-1.2774 0.67716-2.6163 1.2389-4.0245 1.6621-0.74642-2.4086-1.8006-4.3708-3.0395-5.6636 2.724 0.65408 5.1557 2.07 7.0641 4.0014zm-13.974-3.986c-1.2389 1.2851-2.2854 3.2473-3.0242 5.6405-1.3928-0.42323-2.724-0.97727-3.986-1.6544 1.8853-1.9238 4.3015-3.332 7.0102-3.986zm-7.0179 24.616c1.262-0.67716 2.6009-1.2312 3.986-1.6544 0.74642 2.4009 1.7929 4.3554 3.0319 5.6482-2.7087-0.65408-5.1249-2.0623-7.0179-3.9937zm13.928 4.0091c1.2466-1.2928 2.2931-3.255 3.0472-5.6713 1.4082 0.42323 2.7471 0.98497 4.0245 1.6621-1.9084 1.9392-4.3477 3.355-7.0718 4.0091z"/></g></svg></svg>
