<svg width="25" height="25" xmlns="http://www.w3.org/2000/svg">

 <g>
  <title>background</title>
  <rect fill="none" id="canvas_background" height="27" width="27" y="-1" x="-1"/>
 </g>
 <g>
  <title fill="#ffffff">Layer 1</title>
  <polygon fill="#ffffff" stroke="null" id="svg_3" points="24.57564425468445,24.7811176776886 6.821973562240601,24.7811176776886 6.821973562240601,23.821458101272583 23.6159827709198,23.821458101272583 23.6159827709198,7.027447938919067 24.57564425468445,7.027447938919067 "/>
  <polygon fill="#ffffff" stroke="null" id="svg_5" points="23.178347170352936,23.315338045358658 3.1507092118263245,23.315338045358658 3.1507092118263245,22.288276582956314 22.151287615299225,22.288276582956314 22.151287615299225,3.2876972258090973 23.178347170352936,3.2876972258090973 "/>
  <path fill="#ffffff" stroke="null" id="svg_7" d="m20.626935,1.15412l0,19.541307l-19.541307,0l0,-19.541307l19.541307,0m1.085628,-1.085628l-21.712563,0l0,21.712563l21.712563,0l0,-21.712563l0,0z"/>
  <path fill="#ffffff" stroke="null" id="svg_9" d="m5.614207,18.411892l-0.965312,-0.579187l3.377186,-5.628643c0.093998,-0.155913 0.257792,-0.257792 0.439034,-0.271301c0.184057,-0.01576 0.35967,0.060789 0.47562,0.200943l2.331947,2.797998l4.084706,-6.12734c0.117076,-0.175614 0.323084,-0.270175 0.53247,-0.247097c0.209948,0.024203 0.388376,0.163793 0.462674,0.361922l3.377186,9.005828l-1.054245,0.395131l-2.991061,-7.976912l-3.893332,5.839717c-0.098501,0.148033 -0.261169,0.240343 -0.438471,0.249912c-0.176739,0.007317 -0.348976,-0.065292 -0.462112,-0.201505l-2.307181,-2.768166l-2.969109,4.948703z"/>
  <path fill="#ffffff" stroke="null" id="svg_11" d="m6.794588,7.698711c-0.959475,0 -1.739755,-0.78028 -1.739755,-1.739755s0.78028,-1.739755 1.739755,-1.739755s1.739755,0.78028 1.739755,1.739755s-0.78028,1.739755 -1.739755,1.739755zm0,-2.609633c-0.479738,0 -0.869878,0.39014 -0.869878,0.869878s0.39014,0.869878 0.869878,0.869878s0.869878,-0.39014 0.869878,-0.869878s-0.39014,-0.869878 -0.869878,-0.869878z"/>
  <rect fill="#ffffff" stroke="null" x="-0.205477" id="svg_13" y="17.743309" width="21.575582" height="1.078779"/>
 </g>
</svg>