<?xml version="1.0"?>
<!--Icons from directory ""-->
<svg xmlns="http://www.w3.org/2000/svg" width="20" height="380" viewBox="0 0 20 380"><svg xmlns:xlink="http://www.w3.org/1999/xlink" id="dr-black" style="enable-background:new -295 387 20 20" xml:space="preserve" viewBox="-295 387 20 20" version="1.1" y="0" x="0px" width="20" height="20"><style type="text/css">	.st0{fill:none;}</style><g>	<title>background</title>	<rect id="dr-black-canvas_background" class="st0" height="22" width="22" y="386" x="-296"/></g><g>	<title>Layer 1</title>	<path id="dr-black-svg_1" d="m-275.2 395c-0.1-0.6-0.3-1.3-0.6-1.9-0.2-0.6-0.6-1.2-0.9-1.7l-1.2-1.5c-0.4-0.4-0.9-0.9-1.5-1.2-0.5-0.4-1.1-0.7-1.7-0.9-0.6-0.3-1.2-0.4-1.9-0.6-0.7-0.1-1.3-0.2-2-0.2s-1.3 0.1-2 0.2c-0.6 0.1-1.3 0.3-1.9 0.6-0.6 0.2-1.2 0.6-1.7 0.9l-1.5 1.2c-0.4 0.4-0.9 0.9-1.2 1.5-0.4 0.5-0.7 1.1-0.9 1.7-0.3 0.6-0.4 1.2-0.6 1.9-0.1 0.6-0.2 1.3-0.2 2s0.1 1.3 0.2 2c0.1 0.6 0.3 1.3 0.6 1.9 0.2 0.6 0.6 1.2 0.9 1.7l1.2 1.5c0.4 0.4 0.9 0.9 1.5 1.2 0.5 0.4 1.1 0.7 1.7 0.9 0.6 0.3 1.2 0.4 1.9 0.6 0.7 0.1 1.3 0.2 2 0.2s1.3-0.1 2-0.2c0.6-0.1 1.3-0.3 1.9-0.6 0.6-0.2 1.2-0.6 1.7-0.9l1.5-1.2c0.4-0.4 0.9-0.9 1.2-1.5 0.4-0.5 0.7-1.1 0.9-1.7 0.3-0.6 0.4-1.2 0.6-1.9 0.1-0.7 0.2-1.3 0.2-2s-0.1-1.4-0.2-2zm-1.3 1.9c-0.1 0-3-0.6-5.9-0.3-0.1-0.1-0.1-0.3-0.2-0.4l-0.6-1.2c3.3-1.4 4.7-3.3 4.7-3.3 1.3 1.3 2 3.2 2 5.2zm-2.8-6.3s-1.2 1.9-4.4 3.1c-1.4-2.7-3-4.8-3.2-4.9 0.6-0.2 1.3-0.2 2-0.2 2.1-0.1 4.1 0.7 5.6 2zm-7.6-1.8c-0.1 0 0 0 0 0zm-1.6 0.5c0.1 0.2 1.7 2.3 3.1 4.9-4.1 1.1-7.6 1-7.8 1 0.6-2.6 2.3-4.8 4.7-5.9zm-4.9 7.7v-0.3c0.1 0 4.3 0.1 8.7-1.2 0.2 0.5 0.5 1 0.7 1.4-0.1 0-0.2 0.1-0.3 0.1-4.6 1.5-6.9 5.6-6.9 5.6s0 0 0 0c-1.3-1.5-2.2-3.5-2.2-5.6zm8.5 8.4c-2 0-3.9-0.7-5.4-1.9 0.1 0.1 0.2 0.1 0.2 0.1s1.6-3.5 6.6-5.3h0.1c1.2 3.1 1.7 5.7 1.8 6.4-1 0.5-2.1 0.7-3.3 0.7zm4.7-1.4c-0.1-0.5-0.5-3-1.6-6 2.7-0.4 5.1 0.3 5.3 0.4-0.5 2.3-1.8 4.3-3.7 5.6z"/></g></svg><svg xmlns:xlink="http://www.w3.org/1999/xlink" id="dr-hover" style="enable-background:new -295 387 20 20" xml:space="preserve" viewBox="-295 387 20 20" version="1.1" y="20" x="0px" width="20" height="20"><style type="text/css">	.st0{fill:none;}	.st1{fill:#F39C12;}</style><g>	<title>background</title>	<rect id="dr-hover-canvas_background" class="st0" height="22" width="22" y="386" x="-296"/></g><g>	<title>Layer 1</title>	<path id="dr-hover-svg_1" d="m-275.2 395c-0.1-0.6-0.3-1.3-0.6-1.9-0.2-0.6-0.6-1.2-0.9-1.7l-1.2-1.5c-0.4-0.4-0.9-0.9-1.5-1.2-0.5-0.4-1.1-0.7-1.7-0.9-0.6-0.3-1.2-0.4-1.9-0.6-0.7-0.1-1.3-0.2-2-0.2s-1.3 0.1-2 0.2c-0.6 0.1-1.3 0.3-1.9 0.6-0.6 0.2-1.2 0.6-1.7 0.9l-1.5 1.2c-0.4 0.4-0.9 0.9-1.2 1.5-0.4 0.5-0.7 1.1-0.9 1.7-0.3 0.6-0.4 1.2-0.6 1.9-0.1 0.6-0.2 1.3-0.2 2s0.1 1.3 0.2 2c0.1 0.6 0.3 1.3 0.6 1.9 0.2 0.6 0.6 1.2 0.9 1.7l1.2 1.5c0.4 0.4 0.9 0.9 1.5 1.2 0.5 0.4 1.1 0.7 1.7 0.9 0.6 0.3 1.2 0.4 1.9 0.6 0.7 0.1 1.3 0.2 2 0.2s1.3-0.1 2-0.2c0.6-0.1 1.3-0.3 1.9-0.6 0.6-0.2 1.2-0.6 1.7-0.9l1.5-1.2c0.4-0.4 0.9-0.9 1.2-1.5 0.4-0.5 0.7-1.1 0.9-1.7 0.3-0.6 0.4-1.2 0.6-1.9 0.1-0.7 0.2-1.3 0.2-2s-0.1-1.4-0.2-2zm-1.3 1.9c-0.1 0-3-0.6-5.9-0.3-0.1-0.1-0.1-0.3-0.2-0.4l-0.6-1.2c3.3-1.4 4.7-3.3 4.7-3.3 1.3 1.3 2 3.2 2 5.2zm-2.8-6.3s-1.2 1.9-4.4 3.1c-1.4-2.7-3-4.8-3.2-4.9 0.6-0.2 1.3-0.2 2-0.2 2.1-0.1 4.1 0.7 5.6 2zm-7.6-1.8c-0.1 0 0 0 0 0zm-1.6 0.5c0.1 0.2 1.7 2.3 3.1 4.9-4.1 1.1-7.6 1-7.8 1 0.6-2.6 2.3-4.8 4.7-5.9zm-4.9 7.7v-0.3c0.1 0 4.3 0.1 8.7-1.2 0.2 0.5 0.5 1 0.7 1.4-0.1 0-0.2 0.1-0.3 0.1-4.6 1.5-6.9 5.6-6.9 5.6s0 0 0 0c-1.3-1.5-2.2-3.5-2.2-5.6zm8.5 8.4c-2 0-3.9-0.7-5.4-1.9 0.1 0.1 0.2 0.1 0.2 0.1s1.6-3.5 6.6-5.3h0.1c1.2 3.1 1.7 5.7 1.8 6.4-1 0.5-2.1 0.7-3.3 0.7zm4.7-1.4c-0.1-0.5-0.5-3-1.6-6 2.7-0.4 5.1 0.3 5.3 0.4-0.5 2.3-1.8 4.3-3.7 5.6z" class="st1"/></g></svg><svg width="20" height="20" id="dr" y="40"><g><title>background</title><rect id="dr-canvas_background" height="22" width="22" y="-1" x="-1" fill="none"/></g><g><title>Layer 1</title><path id="dr-svg_1" d="m19.769 7.9681c-0.12958-0.63512-0.32436-1.2606-0.57632-1.8582-0.24757-0.58672-0.55473-1.1514-0.91148-1.6794-0.35395-0.52353-0.7599-1.0155-1.207-1.4622-0.44674-0.44754-0.93908-0.85389-1.4622-1.207-0.52793-0.35795-1.0935-0.66391-1.6794-0.91228-0.59752-0.25157-1.2226-0.44674-1.8582-0.57552-0.65072-0.13358-1.321-0.20157-1.9905-0.20157-0.67031 0-1.3398 0.067991-1.9913 0.20157-0.63512 0.12878-1.2606 0.32436-1.8578 0.57552-0.58592 0.24837-1.1514 0.55473-1.6802 0.91228-0.52353 0.35315-1.0155 0.7591-1.4622 1.207-0.44714 0.44674-0.85269 0.93908-1.2062 1.4622-0.35715 0.52793-0.66391 1.0927-0.91148 1.6794-0.25317 0.59752-0.44714 1.223-0.57712 1.8582-0.13318 0.64992-0.20077 1.3202-0.20077 1.9901 0 0.67111 0.067591 1.3414 0.20077 1.9917 0.12998 0.63512 0.32436 1.2606 0.57672 1.8578 0.24757 0.58592 0.55473 1.1522 0.91148 1.6802 0.35355 0.52353 0.7591 1.0147 1.2062 1.4622 0.44674 0.44674 0.93908 0.85229 1.4622 1.2062 0.52873 0.35715 1.0943 0.66391 1.6802 0.91148 0.59672 0.25317 1.2226 0.44594 1.8578 0.57632 0.65152 0.13438 1.321 0.20157 1.9913 0.20157 0.66951 0 1.3398-0.067191 1.9905-0.20157 0.63592-0.13038 1.2606-0.32356 1.8582-0.57632 0.58592-0.24757 1.1514-0.55473 1.6794-0.91148 0.52353-0.35395 1.0155-0.7591 1.4622-1.2062 0.44674-0.44754 0.85309-0.93908 1.207-1.4622 0.35715-0.52793 0.66391-1.0943 0.91148-1.6802 0.25237-0.59672 0.44674-1.2226 0.57632-1.8578 0.13358-0.65072 0.20077-1.321 0.20077-1.9917 0.0004-0.66991-0.066791-1.3402-0.20037-1.9901zm-1.2454 1.9066c-0.12198-0.026397-2.9792-0.64152-5.8804-0.27676-0.059192-0.14438-0.11958-0.28996-0.18198-0.43594-0.17558-0.41315-0.36475-0.82269-0.56153-1.2246 3.3348-1.3606 4.6886-3.3184 4.7042-3.3416 1.1842 1.4374 1.9006 3.2748 1.9198 5.2789zm-2.8636-6.2528c-0.021197 0.032796-1.2234 1.863-4.4102 3.0576-1.4434-2.6521-3.0292-4.7586-3.156-4.9258 0.63832-0.15478 1.3038-0.23837 1.9897-0.23837 2.1381 0 4.0887 0.7967 5.5765 2.1065zm-7.599-1.8614c0 0.0008-0.0016 0.0016-0.0016 0.0016s-0.009199 0.0024-0.024797 0.005599c0.008399-0.0024 0.017998-0.003999 0.026397-0.007199zm-1.5802 0.56153c0.11238 0.15078 1.6742 2.2677 3.1356 4.865-4.0543 1.0771-7.5726 1.0351-7.7958 1.0311 0.54873-2.6153 2.3057-4.7838 4.6602-5.896zm-4.8406 7.6362c0-0.089988 0.003999-0.17798 0.007199-0.26676 0.14878 0.0032 4.321 0.097987 8.6681-1.203 0.24197 0.47354 0.47354 0.95468 0.68511 1.4354-0.11158 0.031196-0.22277 0.064792-0.33276 0.10079-4.5566 1.4726-6.8679 5.5729-6.8679 5.5729s0.0032 0.0024 0.0032 0.003999c-1.3442-1.4962-2.1629-3.4739-2.1629-5.6433zm8.4433 8.4441c-2.0433 0-3.9175-0.7263-5.3781-1.9349 0.11079 0.089988 0.18918 0.14758 0.18918 0.14758s1.6186-3.5299 6.6255-5.2745c0.018798-0.007199 0.037595-0.012398 0.056393-0.017998 1.1882 3.0872 1.6786 5.6729 1.8038 6.4108-1.0135 0.43114-2.1273 0.66911-3.2968 0.66911zm4.7182-1.4402c-0.085989-0.50993-0.53593-2.988-1.6434-6.0312 2.7252-0.43594 5.0877 0.31156 5.2617 0.36875-0.37595 2.3525-1.7226 4.3818-3.6183 5.6625z" fill-rule="evenodd" stroke="null" clip-rule="evenodd" fill="#999"/></g></svg><svg xmlns:rdf="http://www.w3.org/1999/02/22-rdf-syntax-ns#" xmlns:cc="http://creativecommons.org/ns#" xmlns:dc="http://purl.org/dc/elements/1.1/" id="fc-black" height="20" width="20" version="1.1" y="60"><g id="fc-black-g836"><title id="fc-black-title833">background</title><rect id="fc-black-canvas_background" height="22" width="22" y="-1" x="-1" fill="none"/></g><g id="fc-black-g841"><title id="fc-black-title838">Layer 1</title><path id="fc-black-svg_1" d="m14.494 6.4794h-3.154v-2.0691c0-0.77704 0.515-0.95819 0.87772-0.95819h2.2263v-3.416l-3.066-0.01197c-3.4036 0-4.1782 2.5478-4.1782 4.1782v2.2771h-1.9687v3.52h1.9684v9.9603h4.1402v-9.9603h2.7937l0.36108-3.52z" stroke="null"/></g></svg><svg width="20" height="20" id="fc-hover" y="80"><g><title>background</title><rect id="fc-hover-canvas_background" height="22" width="22" y="-1" x="-1" fill="none"/></g><g><title>Layer 1</title><path id="fc-hover-svg_1" d="m14.494 6.4794h-3.1548v-2.0691c0-0.77704 0.515-0.95819 0.87772-0.95819h2.2263v-3.416l-3.0661-0.011967c-3.4036 0-4.1782 2.5478-4.1782 4.1782v2.2771h-1.9684v3.52h1.9684v9.9603h4.1402v-9.9603h2.7937l0.36108-3.52z" stroke="null" fill="#f39c12"/></g></svg><svg width="20" height="20" id="fc" y="100"><g><title>background</title><rect id="fc-canvas_background" height="22" width="22" y="-1" x="-1" fill="none"/></g><g><title>Layer 1</title><path id="fc-svg_1" d="m14.494 6.4794h-3.1548v-2.0691c0-0.77704 0.515-0.95819 0.87772-0.95819h2.2263v-3.416l-3.0661-0.011967c-3.4036 0-4.1782 2.5478-4.1782 4.1782v2.2771h-1.9684v3.52h1.9684v9.9603h4.1402v-9.9603h2.7937l0.36108-3.52z" stroke="null" fill="#999"/></g></svg><svg xmlns:xlink="http://www.w3.org/1999/xlink" id="go-black" style="enable-background:new -295 387 20 20" xml:space="preserve" viewBox="-295 387 20 20" version="1.1" y="120" x="0px" width="20" height="20"><style type="text/css">	.st0{fill:none;}</style><g>	<title>background</title>	<rect id="go-black-canvas_background" class="st0" height="22" width="22" y="386" x="-296"/></g><g>	<title>Layer 1</title>	<path id="go-black-svg_2" d="m-275.5 395.9h-3v-3c0-0.2-0.2-0.4-0.4-0.4h-0.9c-0.2 0-0.4 0.2-0.4 0.4v3h-3c-0.2 0-0.4 0.2-0.4 0.4v0.9c0 0.2 0.2 0.4 0.4 0.4h3v3c0 0.2 0.2 0.4 0.4 0.4h0.9c0.2 0 0.4-0.2 0.4-0.4v-3h3c0.2 0 0.4-0.2 0.4-0.4v-0.9c0-0.2-0.2-0.4-0.4-0.4z"/>	<path id="go-black-svg_3" d="m-284.6 398.1c-0.7-0.5-1.3-1.2-1.3-1.4 0-0.4 0-0.6 0.9-1.3 1.2-0.9 1.8-2.1 1.8-3.4 0-1.2-0.4-2.2-1-2.9h0.5c0.1 0 0.2 0 0.3-0.1l1.3-0.9c0.2-0.1 0.2-0.3 0.2-0.5-0.1-0.2-0.2-0.3-0.4-0.3h-5.8c-0.6 0-1.3 0.1-1.9 0.3-2.1 0.7-3.6 2.5-3.6 4.4 0 2.6 2 4.6 4.8 4.7-0.1 0.2-0.1 0.4-0.1 0.6 0 0.4 0.1 0.8 0.3 1.2h-0.1c-2.6 0-4.9 1.3-5.8 3.2-0.2 0.5-0.3 1-0.3 1.5s0.1 0.9 0.4 1.4c0.6 1 1.8 1.8 3.4 2.2 0.8 0.2 1.7 0.3 2.7 0.3 0.8 0 1.6-0.1 2.4-0.3 2.3-0.7 3.8-2.4 3.8-4.3-0.3-2.2-0.9-3.3-2.5-4.4zm-7.4 4.3c0-1.4 1.7-2.6 3.7-2.6h0.1c0.4 0 0.9 0.1 1.2 0.2 0.1 0.1 0.3 0.2 0.4 0.3 0.9 0.6 1.5 1 1.7 1.7 0 0.2 0.1 0.3 0.1 0.5 0 1.7-1.3 2.6-3.8 2.6-1.9-0.1-3.4-1.3-3.4-2.7zm1.8-13c0.3-0.4 0.7-0.5 1.2-0.5h0.1c1.3 0 2.5 1.5 2.7 3.2 0.1 1-0.1 1.9-0.6 2.4-0.3 0.4-0.7 0.5-1.2 0.5-1.3 0-2.5-1.5-2.7-3.2-0.2-1 0-1.8 0.5-2.4z"/></g></svg><svg width="20" height="20" id="go-hover" y="140"><g><title>background</title><rect id="go-hover-canvas_background" height="22" width="22" y="-1" x="-1" fill="none"/></g><g><title>Layer 1</title><path id="go-hover-svg_2" d="m19.471 8.912h-3.0457v-3.0449c0-0.23232-0.18853-0.42126-0.42045-0.42126h-0.86726c-0.23354 0-0.42207 0.18894-0.42207 0.42126v3.0449h-3.0457c-0.23192 0-0.42126 0.18934-0.42126 0.42207v0.86726c0 0.23273 0.18934 0.42126 0.42126 0.42126h3.0457v3.0465c0 0.23273 0.18853 0.42126 0.42207 0.42126h0.86726c0.23192 0 0.42045-0.18853 0.42045-0.42126v-3.047h3.0457c0.23192 0 0.42126-0.18853 0.42126-0.42126v-0.86726c0-0.23273-0.18934-0.42167-0.42126-0.42167z" stroke="null" fill="#f39c12"/><path id="go-hover-svg_3" d="m10.363 11.055c-0.69548-0.49256-1.3276-1.2149-1.3386-1.4367 0-0.40408 0.036095-0.59732 0.94242-1.3034 1.1718-0.91733 1.8171-2.1234 1.8171-3.3977 0-1.1555-0.35302-2.182-0.95387-2.903h0.46615c0.096399 0 0.19104-0.029932 0.26807-0.086275l1.3007-0.94242c0.16155-0.11577 0.22933-0.32221 0.16771-0.51105-0.062065-0.1884-0.23638-0.31693-0.4349-0.31693h-5.8174c-0.6365 0-1.2831 0.11225-1.9179 0.33058-2.1199 0.73114-3.6024 2.5376-3.6024 4.3921 0 2.6274 2.0354 4.6188 4.7561 4.6813-0.053262 0.2082-0.080113 0.41333-0.080113 0.61449 0 0.40496 0.10256 0.78836 0.31385 1.159h-0.07483c-2.5935 0-4.9344 1.2726-5.8231 3.1662-0.23153 0.49256-0.3495 0.9904-0.3495 1.4821 0 0.47804 0.12281 0.93802 0.36359 1.3703 0.55859 0.99921 1.7581 1.7744 3.3793 2.1837 0.83678 0.21129 1.7361 0.31913 2.6697 0.31913 0.83898 0 1.6388-0.10828 2.3783-0.32221 2.3057-0.66951 3.7965-2.3668 3.7965-4.3261-0.00044-1.88-0.60481-3.0055-2.2269-4.1531zm-7.347 4.3036c0-1.3676 1.7374-2.5671 3.7178-2.5671h0.053262c0.43094 0.005282 0.85131 0.068668 1.2475 0.19016 0.13602 0.093758 0.26719 0.18312 0.39308 0.26895 0.91733 0.62505 1.5235 1.0375 1.692 1.6995 0.039616 0.16683 0.059424 0.33366 0.059424 0.4952 0 1.7031-1.2699 2.5662-3.7759 2.5662-1.8994 0-3.3872-1.1647-3.3872-2.653zm1.8021-12.922c0.30945-0.35346 0.71485-0.5401 1.17-0.5401l0.051501 0.00088c1.2858 0.037855 2.5161 1.4706 2.7423 3.1939 0.12721 0.96487-0.087596 1.8721-0.57267 2.4249-0.31033 0.35434-0.71001 0.54098-1.1836 0.54098h-0.00088-0.020688c-1.2594-0.038736-2.5161-1.5261-2.741-3.2472-0.12633-0.96223 0.076151-1.8272 0.55507-2.3734z" stroke="null" fill="#f39c12"/></g></svg><svg width="20" height="20" id="go" y="160"><g><title>background</title><rect id="go-canvas_background" height="22" width="22" y="-1" x="-1" fill="none"/></g><g><title>Layer 1</title><path id="go-svg_2" d="m19.471 8.912h-3.0457v-3.0449c0-0.23232-0.18853-0.42126-0.42045-0.42126h-0.86726c-0.23354 0-0.42207 0.18894-0.42207 0.42126v3.0449h-3.0457c-0.23192 0-0.42126 0.18934-0.42126 0.42207v0.86726c0 0.23273 0.18934 0.42126 0.42126 0.42126h3.0457v3.0465c0 0.23273 0.18853 0.42126 0.42207 0.42126h0.86726c0.23192 0 0.42045-0.18853 0.42045-0.42126v-3.047h3.0457c0.23192 0 0.42126-0.18853 0.42126-0.42126v-0.86726c0-0.23273-0.18934-0.42167-0.42126-0.42167z" stroke="null" fill="#999"/><path id="go-svg_3" d="m10.363 11.055c-0.69548-0.49256-1.3276-1.2149-1.3386-1.4367 0-0.40408 0.036095-0.59732 0.94242-1.3034 1.1718-0.91733 1.8171-2.1234 1.8171-3.3977 0-1.1555-0.35302-2.182-0.95387-2.903h0.46615c0.096399 0 0.19104-0.029932 0.26807-0.086275l1.3007-0.94242c0.16155-0.11577 0.22933-0.32221 0.16771-0.51105-0.062065-0.1884-0.23638-0.31693-0.4349-0.31693h-5.8174c-0.6365 0-1.2831 0.11225-1.9179 0.33058-2.1199 0.73114-3.6024 2.5376-3.6024 4.3921 0 2.6274 2.0354 4.6188 4.7561 4.6813-0.053262 0.2082-0.080113 0.41333-0.080113 0.61449 0 0.40496 0.10256 0.78836 0.31385 1.159h-0.07483c-2.5935 0-4.9344 1.2726-5.8231 3.1662-0.23153 0.49256-0.3495 0.9904-0.3495 1.4821 0 0.47804 0.12281 0.93802 0.36359 1.3703 0.55859 0.99921 1.7581 1.7744 3.3793 2.1837 0.83678 0.21129 1.7361 0.31913 2.6697 0.31913 0.83898 0 1.6388-0.10828 2.3783-0.32221 2.3057-0.66951 3.7965-2.3668 3.7965-4.3261-0.00044-1.88-0.60481-3.0055-2.2269-4.1531zm-7.347 4.3036c0-1.3676 1.7374-2.5671 3.7178-2.5671h0.053262c0.43094 0.005282 0.85131 0.068668 1.2475 0.19016 0.13602 0.093758 0.26719 0.18312 0.39308 0.26895 0.91733 0.62505 1.5235 1.0375 1.692 1.6995 0.039616 0.16683 0.059424 0.33366 0.059424 0.4952 0 1.7031-1.2699 2.5662-3.7759 2.5662-1.8994 0-3.3872-1.1647-3.3872-2.653zm1.8021-12.922c0.30945-0.35346 0.71485-0.5401 1.17-0.5401l0.051501 0.00088c1.2858 0.037855 2.5161 1.4706 2.7423 3.1939 0.12721 0.96487-0.087596 1.8721-0.57267 2.4249-0.31033 0.35434-0.71001 0.54098-1.1836 0.54098h-0.00088-0.020688c-1.2594-0.038736-2.5161-1.5261-2.741-3.2472-0.12633-0.96223 0.076151-1.8272 0.55507-2.3734z" stroke="null" fill="#999"/></g></svg><svg xmlns:xlink="http://www.w3.org/1999/xlink" id="ln-black" style="enable-background:new -295 -20 20 20" xml:space="preserve" viewBox="-295 -20 20 20" version="1.1" y="180" x="0px" width="20" height="20"><style type="text/css">	.st0{fill:none;}</style><g>	<title>background</title>	<rect id="ln-black-canvas_background" class="st0" height="22" width="22" y="-21" x="-296"/></g><g>	<title>Layer 1</title>	<path id="ln-black-svg_2" d="m-290.6-0.1h-4.2v-14.1h4.2v14.1zm15.5 0h-4.2v-7.5c0-2-0.7-2.9-2.1-2.9-1.1 0-1.8 0.5-2.1 1.6v8.8h-4.2s0.1-12.7 0-14.1h3.3l0.3 2.8h0.1c0.9-1.4 2.2-2.4 4.1-2.4 1.4 0 2.6 0.4 3.5 1.4s1.3 2.4 1.3 4.3v8z"/>	<ellipse id="ln-black-svg_4" cy="-17.8" cx="-292.9" rx="2.1" ry="2.1"/></g></svg><svg width="20" height="20" id="ln-hover" y="200"><g><title>background</title><rect id="ln-hover-canvas_background" height="22" width="22" y="-1" x="-1" fill="none"/></g><g><title>Layer 1</title><path id="ln-hover-svg_2" d="m4.3861 19.935h-4.2188v-14.063h4.2188v14.063zm15.469 0h-4.2188v-7.5123c0-1.9575-0.69751-2.9321-2.0799-2.9321-1.0955 0-1.7902 0.54563-2.1389 1.6383v8.806h-4.2188s0.056251-12.656 0-14.063h3.33l0.25735 2.8125h0.087189c0.86485-1.4063 2.2472-2.3597 4.1429-2.3597 1.4414 0 2.6072 0.40079 3.4974 1.4077 0.89579 1.0083 1.3416 2.3611 1.3416 4.261v7.9412z" stroke="null" fill="#f39c12"/><ellipse id="ln-hover-svg_4" rx="2.1262" ry="2.1344" stroke="null" cy="2.153" cx="2.132" fill="#f39c12"/></g></svg><svg width="20" height="20" id="ln" y="220"><g><title>background</title><rect id="ln-canvas_background" height="22" width="22" y="-1" x="-1" fill="none"/></g><g><title>Layer 1</title><path id="ln-svg_2" d="m4.3861 19.935h-4.2188v-14.063h4.2188v14.063zm15.469 0h-4.2188v-7.5123c0-1.9575-0.69751-2.9321-2.0799-2.9321-1.0955 0-1.7902 0.54563-2.1389 1.6383v8.806h-4.2188s0.056251-12.656 0-14.063h3.33l0.25735 2.8125h0.087189c0.86485-1.4063 2.2472-2.3597 4.1429-2.3597 1.4414 0 2.6072 0.40079 3.4974 1.4077 0.89579 1.0083 1.3416 2.3611 1.3416 4.261v7.9412z" stroke="null" fill="#999"/><ellipse id="ln-svg_4" rx="2.1262" ry="2.1344" stroke="null" cy="2.153" cx="2.132" fill="#999"/></g></svg><svg width="20" height="20" id="pinterest-hover" y="240"><g><title>background</title><rect id="pinterest-hover-canvas_background" height="22" width="22" y="-1" x="-1" fill="none"/></g><g><title>Layer 1</title><path id="pinterest-hover-svg_1" d="m10.411 1.2844c-4.8729 0-7.3302 3.4935-7.3302 6.4073 0 1.7639 0.66785 3.3331 2.1 3.9174 0.23493 0.096841 0.44547 0.003587 0.51362-0.25645 0.047345-0.17934 0.15961-0.63341 0.20946-0.82315 0.068506-0.25717 0.041965-0.34684-0.14777-0.57172-0.41283-0.48672-0.67717-1.1173-0.67717-2.0111 0-2.5918 1.9393-4.912 5.0497-4.912 2.7542 0 4.2675 1.6829 4.2675 3.93 0 2.9576-1.3088 5.4536-3.2514 5.4536-1.0731 0-1.8759-0.88699-1.619-1.9756 0.3081-1.2995 0.90529-2.7012 0.90529-3.6398 0-0.83929-0.45085-1.5394-1.383-1.5394-1.0968 0-1.9781 1.1348-1.9781 2.6545 0 0.96805 0.32711 1.623 0.32711 1.623s-1.1223 4.756-1.3192 5.5888c-0.39167 1.6589-0.058822 3.6918-0.030487 3.897 0.016499 0.12195 0.17288 0.15136 0.2439 0.059539 0.10079-0.13235 1.4078-1.7449 1.8515-3.3568 0.12589-0.45587 0.72129-2.8188 0.72129-2.8188 0.35652 0.68004 1.3981 1.2776 2.5057 1.2776 3.2965 0 5.5336-3.0053 5.5336-7.0282 0.000359-3.0426-2.5763-5.8758-6.4923-5.8758z" stroke="null" fill="#f39c12"/></g></svg><svg width="20" height="20" id="pinterest" y="260"><g><title>background</title><rect id="pinterest-canvas_background" height="22" width="22" y="-1" x="-1" fill="none"/></g><g><title>Layer 1</title><path id="pinterest-svg_1" stroke="null" d="m10.411 1.2844c-4.8729 0-7.3302 3.4935-7.3302 6.4073 0 1.7639 0.66785 3.3331 2.1 3.9174 0.23493 0.096841 0.44547 0.003587 0.51362-0.25645 0.047345-0.17934 0.15961-0.63341 0.20946-0.82315 0.068506-0.25717 0.041965-0.34684-0.14777-0.57172-0.41283-0.48672-0.67717-1.1173-0.67717-2.0111 0-2.5918 1.9393-4.912 5.0497-4.912 2.7542 0 4.2675 1.6829 4.2675 3.93 0 2.9576-1.3088 5.4536-3.2514 5.4536-1.0731 0-1.8759-0.88699-1.619-1.9756 0.3081-1.2995 0.90529-2.7012 0.90529-3.6398 0-0.83929-0.45085-1.5394-1.383-1.5394-1.0968 0-1.9781 1.1348-1.9781 2.6545 0 0.96805 0.32711 1.623 0.32711 1.623s-1.1223 4.756-1.3192 5.5888c-0.39167 1.6589-0.058822 3.6918-0.030487 3.897 0.016499 0.12195 0.17288 0.15136 0.2439 0.059539 0.10079-0.13235 1.4078-1.7449 1.8515-3.3568 0.12589-0.45587 0.72129-2.8188 0.72129-2.8188 0.35652 0.68004 1.3981 1.2776 2.5057 1.2776 3.2965 0 5.5336-3.0053 5.5336-7.0282 0.000359-3.0426-2.5763-5.8758-6.4923-5.8758z"/></g></svg><svg xmlns:xlink="http://www.w3.org/1999/xlink" id="rss-hover" style="enable-background:new -297 385.3 20 20" xml:space="preserve" viewBox="-297 385.3 20 20" version="1.1" y="280" x="0px" width="20" height="20"><style type="text/css">	.st0{fill:none;}	.st1{fill:#F39C12;}</style><title/><g>	<title>background</title>	<rect id="rss-hover-canvas_background" class="st0" height="402" width="582" y="388" x="-298"/></g><g>	<title>Layer 1</title>	<path id="rss-hover-Oval_213" d="m-288.3 405.3c0-4.8-3.9-8.6-8.8-8.6v-3.7c6.9 0 12.5 5.5 12.5 12.3h-3.7zm-6.2 0c-1.4 0-2.5-1.1-2.5-2.5s1.1-2.5 2.5-2.5 2.5 1.1 2.5 2.5-1.1 2.5-2.5 2.5zm13.7 0c0-8.9-7.3-16-16.3-16v-3.7c11 0 20 8.8 20 19.8h-3.7z" class="st1"/></g></svg><svg xmlns:xlink="http://www.w3.org/1999/xlink" id="rss" style="enable-background:new -297 385.3 20 20" xml:space="preserve" viewBox="-297 385.3 20 20" version="1.1" y="300" x="0px" width="20" height="20"><style type="text/css">	.st0{fill:none;}</style><title/><g>	<title>background</title>	<rect id="rss-canvas_background" class="st0" height="402" width="582" y="388" x="-298"/></g><g>	<title>Layer 1</title>	<path id="rss-Oval_213" d="m-288.3 405.3c0-4.8-3.9-8.6-8.8-8.6v-3.7c6.9 0 12.5 5.5 12.5 12.3h-3.7zm-6.2 0c-1.4 0-2.5-1.1-2.5-2.5s1.1-2.5 2.5-2.5 2.5 1.1 2.5 2.5-1.1 2.5-2.5 2.5zm13.7 0c0-8.9-7.3-16-16.3-16v-3.7c11 0 20 8.8 20 19.8h-3.7z"/></g></svg><svg xmlns:xlink="http://www.w3.org/1999/xlink" id="tw-black" style="enable-background:new -295 387 20 20" xml:space="preserve" viewBox="-295 387 20 20" version="1.1" y="320" x="0px" width="20" height="20"><style type="text/css">	.st0{fill:none;}</style><g>	<title>background</title>	<rect id="tw-black-canvas_background" class="st0" height="22" width="22" y="386" x="-296"/></g><g>	<title>Layer 1</title>	<path id="tw-black-svg_1" d="m-275.1 389.5c-0.7 0.4-1.5 0.7-2.3 0.8 0.8-0.6 1.5-1.6 1.8-2.8-0.8 0.6-1.7 1-2.6 1.2-0.7-1-1.8-1.6-3-1.6-2.3 0-4.1 2.2-4.1 5 0 0.4 0 0.8 0.1 1.1-3.4-0.2-6.4-2.2-8.4-5.2-0.4 0.7-0.6 1.6-0.6 2.5 0 1.7 0.7 3.3 1.8 4.2-0.7 0-1.3-0.3-1.8-0.6v0.1c0 2.4 1.4 4.4 3.3 4.9-0.3 0.1-0.7 0.2-1.1 0.2-0.3 0-0.5 0-0.8-0.1 0.5 2 2 3.4 3.8 3.5-1.4 1.3-3.2 2.1-5.1 2.1-0.3 0-0.7 0-1-0.1 1.8 1.4 4 2.2 6.3 2.2 7.5 0 11.6-7.6 11.6-14.2v-0.6c0.9-0.8 1.6-1.6 2.1-2.6z"/></g></svg><svg width="20" height="20" id="tw-hover" y="340"><g><title>background</title><rect id="tw-hover-canvas_background" height="22" width="22" y="-1" x="-1" fill="none"/></g><g><title>Layer 1</title><path id="tw-hover-svg_1" d="m19.906 2.4668c-0.73177 0.398-1.5193 0.66647-2.3456 0.78661 0.8437-0.61802 1.4906-1.597 1.7957-2.7648-0.78914 0.57303-1.6627 0.98883-2.5933 1.2133-0.7447-0.97103-1.8062-1.5782-2.9808-1.5782-2.2551 0-4.0835 2.2372-4.0835 4.9971 0 0.39109 0.03596 0.77228 0.10587 1.1386-3.3942-0.20865-6.4037-2.1977-8.418-5.221-0.35154 0.73767-0.55277 1.596-0.55277 2.5126 0 1.7334 0.72086 3.2632 1.8167 4.159-0.66914-0.0262-1.2991-0.25116-1.8498-0.62543-0.00041 0.02076-0.00041 0.04202-0.00041 0.06328 0 2.4207 1.4078 4.4399 3.2762 4.8997-0.34265 0.11371-0.70348 0.17502-1.076 0.17502-0.26346 0-0.51923-0.03115-0.76854-0.08998 0.52003 1.9851 2.028 3.4303 3.8148 3.4703-1.3977 1.3404-3.1582 2.1393-5.0719 2.1393-0.32932 0-0.65459-0.02374-0.97421-0.07021 1.8078 1.4185 3.9542 2.2451 6.2602 2.2451 7.512 0 11.619-7.614 11.619-14.217 0-0.21656-0.00364-0.43262-0.01131-0.64719 0.79763-0.70307 1.4902-1.5836 2.0373-2.5858z" stroke="null" fill="#f39c12"/></g></svg><svg width="20" height="20" id="tw" y="360"><g><title>background</title><rect id="tw-canvas_background" height="22" width="22" y="-1" x="-1" fill="none"/></g><g><title>Layer 1</title><path id="tw-svg_1" d="m19.906 2.4668c-0.73177 0.398-1.5193 0.66647-2.3456 0.78661 0.8437-0.61802 1.4906-1.597 1.7957-2.7648-0.78914 0.57303-1.6627 0.98883-2.5933 1.2133-0.7447-0.97103-1.8062-1.5782-2.9808-1.5782-2.2551 0-4.0835 2.2372-4.0835 4.9971 0 0.39109 0.03596 0.77228 0.10587 1.1386-3.3942-0.20865-6.4037-2.1977-8.418-5.221-0.35154 0.73767-0.55277 1.596-0.55277 2.5126 0 1.7334 0.72086 3.2632 1.8167 4.159-0.66914-0.0262-1.2991-0.25116-1.8498-0.62543-0.00041 0.02076-0.00041 0.04202-0.00041 0.06328 0 2.4207 1.4078 4.4399 3.2762 4.8997-0.34265 0.11371-0.70348 0.17502-1.076 0.17502-0.26346 0-0.51923-0.03115-0.76854-0.08998 0.52003 1.9851 2.028 3.4303 3.8148 3.4703-1.3977 1.3404-3.1582 2.1393-5.0719 2.1393-0.32932 0-0.65459-0.02374-0.97421-0.07021 1.8078 1.4185 3.9542 2.2451 6.2602 2.2451 7.512 0 11.619-7.614 11.619-14.217 0-0.21656-0.00364-0.43262-0.01131-0.64719 0.79763-0.70307 1.4902-1.5836 2.0373-2.5858z" stroke="null" fill="#999"/></g></svg></svg>
